<?xml version='1.0' encoding='UTF-8' standalone='no'?>
<svg
  xmlns:dc="http://purl.org/dc/elements/1.1/"
  xmlns:cc="http://creativecommons.org/ns#"
  xmlns:rdf="http://www.w3.org/1999/02/22-rdf-syntax-ns#"
  xmlns:svg="http://www.w3.org/2000/svg"
  xmlns="http://www.w3.org/2000/svg"
  id="svg4434"
  width="2.4856882in"
  viewBox="0 0 2485.689 984.25032"
  version="1.1"
  height="0.98425001in"
  clip-rule="evenodd"
  fill-rule="evenodd"
  image-rendering="optimizeQuality"
  shape-rendering="geometricPrecision"
  text-rendering="geometricPrecision">
  <metadata
    id="metadata4440">
    <rdf:RDF>
      <cc:Work
        rdf:about="">
        <dc:format>image/svg+xml</dc:format>
        <dc:type
          rdf:resource="http://purl.org/dc/dcmitype/StillImage"
        />
        <dc:title/>
      </cc:Work>
    </rdf:RDF>
  </metadata>
  <defs
    id="defs4438"
  />
  <desc
    id="desc2">
    <referenceFile>Arduino-MKR1000_578c51dd72176bd264d81df45da7d3ac_1_breadboard.svg</referenceFile>
  </desc>
  <g
    id="breadboard">
    <path
      id="path5"
      d="m 64.431011,893.69398 v -803.142202 c 0,-49.805075 40.742259,-90.551778 90.547499,-90.551778 h 2240.15839 c 49.8053,0 90.5521,40.74214 90.5521,90.551778 v 803.142202 c 0,49.80507 -40.7468,90.55634 -90.5521,90.55634 h -2240.15839 c -49.80524,0 -90.547499,-40.7467 -90.547499,-90.55634 z m 2169.822289,-23.55633 c 11.9608,0 21.6535,9.69268 21.6535,21.65339 0,11.9607 -9.6927,21.65338 -21.6535,21.65338 -11.9607,0 -21.6534,-9.69268 -21.6534,-21.65338 0,-11.96071 9.6927,-21.65339 21.6534,-21.65339 z m -99.9983,0 c 11.9607,0 21.6535,9.69268 21.6535,21.65339 0,11.9607 -9.6928,21.65338 -21.6535,21.65338 -11.9607,0 -21.6535,-9.69268 -21.6535,-21.65338 0,-11.96071 9.6928,-21.65339 21.6535,-21.65339 z m -99.9983,0 c 11.9607,0 21.6533,9.69268 21.6533,21.65339 0,11.9607 -9.6926,21.65338 -21.6533,21.65338 -11.9608,0 -21.6535,-9.69268 -21.6535,-21.65338 0,-11.96071 9.6927,-21.65339 21.6535,-21.65339 z m -99.9985,0 c 11.9608,0 21.6535,9.69268 21.6535,21.65339 0,11.9607 -9.6927,21.65338 -21.6535,21.65338 -11.9607,0 -21.6533,-9.69268 -21.6533,-21.65338 0,-11.96071 9.6926,-21.65339 21.6533,-21.65339 z m -99.9983,0 c 11.9608,0 21.6535,9.69268 21.6535,21.65339 0,11.9607 -9.6927,21.65338 -21.6535,21.65338 -11.9607,0 -21.6534,-9.69268 -21.6534,-21.65338 0,-11.96071 9.6927,-21.65339 21.6534,-21.65339 z m -99.9983,0 c 11.9607,0 21.6535,9.69268 21.6535,21.65339 0,11.9607 -9.6928,21.65338 -21.6535,21.65338 -11.9607,0 -21.6535,-9.69268 -21.6535,-21.65338 0,-11.96071 9.6928,-21.65339 21.6535,-21.65339 z m -99.9983,0 c 11.9606,0 21.6533,9.69268 21.6533,21.65339 0,11.9607 -9.6927,21.65338 -21.6533,21.65338 -11.9608,0 -21.6535,-9.69268 -21.6535,-21.65338 0,-11.96071 9.6927,-21.65339 21.6535,-21.65339 z m -99.9985,0 c 11.9608,0 21.6535,9.69268 21.6535,21.65339 0,11.9607 -9.6927,21.65338 -21.6535,21.65338 -11.9607,0 -21.6534,-9.69268 -21.6534,-21.65338 0,-11.96071 9.6927,-21.65339 21.6534,-21.65339 z m -99.9983,0 c 11.9608,0 21.6535,9.69268 21.6535,21.65339 0,11.9607 -9.6927,21.65338 -21.6535,21.65338 -11.9607,0 -21.6534,-9.69268 -21.6534,-21.65338 0,-11.96071 9.6927,-21.65339 21.6534,-21.65339 z m -99.9983,0 c 11.9607,0 21.6535,9.69268 21.6535,21.65339 0,11.9607 -9.6928,21.65338 -21.6535,21.65338 -11.9607,0 -21.6535,-9.69268 -21.6535,-21.65338 0,-11.96071 9.6928,-21.65339 21.6535,-21.65339 z m -99.9984,0 c 11.9607,0 21.6534,9.69268 21.6534,21.65339 0,11.9607 -9.6927,21.65338 -21.6534,21.65338 -11.9608,0 -21.6534,-9.69268 -21.6534,-21.65338 0,-11.96071 9.6926,-21.65339 21.6534,-21.65339 z m -99.9984,0 c 11.9608,0 21.6535,9.69268 21.6535,21.65339 0,11.9607 -9.6927,21.65338 -21.6535,21.65338 -11.9607,0 -21.6534,-9.69268 -21.6534,-21.65338 0,-11.96071 9.6927,-21.65339 21.6534,-21.65339 z m -99.9983,0 c 11.9608,0 21.6535,9.69268 21.6535,21.65339 0,11.9607 -9.6927,21.65338 -21.6535,21.65338 -11.9607,0 -21.6534,-9.69268 -21.6534,-21.65338 0,-11.96071 9.6927,-21.65339 21.6534,-21.65339 z m -99.99834,0 c 11.96073,0 21.65345,9.69268 21.65345,21.65339 0,11.9607 -9.69272,21.65338 -21.65345,21.65338 -11.96075,0 -21.65346,-9.69268 -21.65346,-21.65338 0,-11.96071 9.69271,-21.65339 21.65346,-21.65339 z m 1299.99684,-799.998013 c 11.9607,0 21.6535,9.692687 21.6535,21.653389 0,11.956134 -9.6928,21.653384 -21.6535,21.653384 -11.9562,0 -21.6535,-9.69725 -21.6535,-21.653384 0,-11.960702 9.6973,-21.653389 21.6535,-21.653389 z m -99.9983,0 c 11.9607,0 21.6534,9.692687 21.6534,21.653389 0,11.956134 -9.6927,21.653384 -21.6534,21.653384 -11.9562,0 -21.6535,-9.69725 -21.6535,-21.653384 0,-11.960702 9.6973,-21.653389 21.6535,-21.653389 z m -99.9985,0 c 11.9608,0 21.6535,9.692687 21.6535,21.653389 0,11.956134 -9.6927,21.653384 -21.6535,21.653384 -11.9561,0 -21.6533,-9.69725 -21.6533,-21.653384 0,-11.960702 9.6972,-21.653389 21.6533,-21.653389 z m -99.9983,0 c 11.9608,0 21.6535,9.692687 21.6535,21.653389 0,11.956134 -9.6927,21.653384 -21.6535,21.653384 -11.9562,0 -21.6535,-9.69725 -21.6535,-21.653384 0,-11.960702 9.6973,-21.653389 21.6535,-21.653389 z m -99.9983,0 c 11.9607,0 21.6535,9.692687 21.6535,21.653389 0,11.956134 -9.6928,21.653384 -21.6535,21.653384 -11.9562,0 -21.6535,-9.69725 -21.6535,-21.653384 0,-11.960702 9.6973,-21.653389 21.6535,-21.653389 z m -99.9983,0 c 11.9607,0 21.6534,9.692687 21.6534,21.653389 0,11.956134 -9.6927,21.653384 -21.6534,21.653384 -11.9562,0 -21.6535,-9.69725 -21.6535,-21.653384 0,-11.960702 9.6973,-21.653389 21.6535,-21.653389 z m -99.9985,0 c 11.9608,0 21.6535,9.692687 21.6535,21.653389 0,11.956134 -9.6927,21.653384 -21.6535,21.653384 -11.9561,0 -21.6533,-9.69725 -21.6533,-21.653384 0,-11.960702 9.6972,-21.653389 21.6533,-21.653389 z m -99.9983,0 c 11.9608,0 21.6535,9.692687 21.6535,21.653389 0,11.956134 -9.6927,21.653384 -21.6535,21.653384 -11.9562,0 -21.6535,-9.69725 -21.6535,-21.653384 0,-11.960702 9.6973,-21.653389 21.6535,-21.653389 z m -99.9983,0 c 11.9607,0 21.6535,9.692687 21.6535,21.653389 0,11.956134 -9.6928,21.653384 -21.6535,21.653384 -11.9562,0 -21.6535,-9.69725 -21.6535,-21.653384 0,-11.960702 9.6973,-21.653389 21.6535,-21.653389 z m -99.9983,0 c 11.9606,0 21.6533,9.692687 21.6533,21.653389 0,11.956134 -9.6927,21.653384 -21.6533,21.653384 -11.9562,0 -21.6535,-9.69725 -21.6535,-21.653384 0,-11.960702 9.6973,-21.653389 21.6535,-21.653389 z m -99.9985,0 c 11.9608,0 21.6535,9.692687 21.6535,21.653389 0,11.956134 -9.6927,21.653384 -21.6535,21.653384 -11.9561,0 -21.6534,-9.69725 -21.6534,-21.653384 0,-11.960702 9.6973,-21.653389 21.6534,-21.653389 z m -99.9983,0 c 11.9608,0 21.6535,9.692687 21.6535,21.653389 0,11.956134 -9.6927,21.653384 -21.6535,21.653384 -11.9562,0 -21.6535,-9.69725 -21.6535,-21.653384 0,-11.960702 9.6973,-21.653389 21.6535,-21.653389 z m -99.9983,0 c 11.9607,0 21.6535,9.692687 21.6535,21.653389 0,11.956134 -9.6928,21.653384 -21.6535,21.653384 -11.9562,0 -21.6535,-9.69725 -21.6535,-21.653384 0,-11.960702 9.6973,-21.653389 21.6535,-21.653389 z m -99.99839,0 c 11.96074,0 21.65346,9.692687 21.65346,21.653389 0,11.956134 -9.69272,21.653384 -21.65346,21.653384 -11.95617,0 -21.65345,-9.69725 -21.65345,-21.653384 0,-11.960702 9.69728,-21.653389 21.65345,-21.653389 z m 1460.10919,778.344623 c 23.9169,0 43.3069,19.38994 43.3069,43.30678 0,23.91684 -19.39,43.30677 -43.3069,43.30677 -23.9169,0 -43.3069,-19.38993 -43.3069,-43.30677 0,-23.91684 19.39,-43.30678 43.3069,-43.30678 z m 0,-799.998011 c 23.9169,0 43.3069,19.389936 43.3069,43.306777 0,23.916834 -19.39,43.306774 -43.3069,43.306774 -23.9169,0 -43.3069,-19.38994 -43.3069,-43.306774 0,-23.916841 19.39,-43.306777 43.3069,-43.306777 z m -2237.43861,799.998011 c 23.91692,0 43.30692,19.38994 43.30692,43.30678 0,23.91684 -19.39,43.30677 -43.30692,43.30677 -23.9169,0 -43.30691,-19.38993 -43.30691,-43.30677 0,-23.91684 19.39001,-43.30678 43.30691,-43.30678 z m 0,-799.998011 c 23.91692,0 43.30692,19.389936 43.30692,43.306777 0,23.916834 -19.39,43.306774 -43.30692,43.306774 -23.9169,0 -43.30691,-19.38994 -43.30691,-43.306774 0,-23.916841 19.39001,-43.306777 43.30691,-43.306777 z"
      fill="#0f7391"
      stroke-width="0.00456342"
    />
    <path
      id="path21"
      d="m 230.15639,800.17598 c 0,1.27776 0.31487,2.40492 0.93094,3.39062 0.62062,0.9857 1.51962,1.80711 2.68329,2.47337 1.16367,0.66169 2.5829,1.16823 4.25767,1.51505 1.67935,0.34226 3.55492,0.5111 5.63127,0.5111 2.11743,0 4.00213,-0.15515 5.64953,-0.4609 1.63827,-0.31031 3.02555,-0.78035 4.15727,-1.41922 1.13631,-0.63888 1.99423,-1.45117 2.58291,-2.45056 0.58411,-0.99482 0.87617,-2.18131 0.87617,-3.55946 0,-1.27319 -0.17797,-2.56007 -0.54304,-3.83326 -0.36051,-1.28232 -0.87162,-2.67872 -1.53787,-4.18465 h 7.04136 c 0.36051,0.68907 0.67995,1.37359 0.93094,2.04441 0.24642,0.67538 0.46546,1.36446 0.62062,2.06266 0.16428,0.70277 0.28293,1.42378 0.36964,2.16762 0.0822,0.73015 0.11865,1.52874 0.11865,2.36841 0,2.42774 -0.48829,4.53147 -1.4603,6.30664 -0.98569,1.77516 -2.35472,3.24458 -4.13446,4.40369 -1.76605,1.1591 -3.90629,2.02159 -6.39336,2.58289 -2.50076,0.5613 -5.27988,0.83967 -8.33282,0.83967 -2.99817,0 -5.74991,-0.32857 -8.25979,-0.97201 -2.50077,-0.64344 -4.65926,-1.59263 -6.47094,-2.83388 -1.80256,-1.24581 -3.21265,-2.78824 -4.21205,-4.62273 -1.00851,-1.8345 -1.50592,-3.94279 -1.50592,-6.32489 0,-1.56525 0.24642,-3.13507 0.74839,-4.69575 0.49285,-1.56982 1.17736,-3.07574 2.04898,-4.50865 l 6.83145,2.14936 c -0.70277,1.17736 -1.32339,2.35929 -1.83906,3.54577 -0.52936,1.19105 -0.78947,2.35929 -0.78947,3.5047 z m 33.22174,-38.72511 v 6.66258 h -17.10829 v 10.67839 h 17.10829 v 6.66714 h -39.6653 v -6.66714 h 15.55672 v -10.67839 h -15.55672 v -6.66258 z m -21.84055,-14.60291 v -1.83906 c 0,-1.88013 -0.4746,-3.22633 -1.4101,-4.04318 -0.94007,-0.81685 -2.32279,-1.22756 -4.15273,-1.22756 -1.90294,0 -3.25372,0.44265 -4.05688,1.31426 -0.80773,0.87618 -1.20475,2.22238 -1.20475,4.066 v 1.72954 z m 6.67629,0 h 15.16426 v 6.66714 h -39.6653 v -8.61572 c 0,-4.03406 0.98114,-7.01853 2.95254,-8.93973 1.96227,-1.92119 4.95131,-2.88407 8.95801,-2.88407 1.35989,0 2.59202,0.14603 3.70093,0.43352 1.10435,0.2875 2.08548,0.67082 2.94341,1.15455 0.86249,0.47459 1.62002,1.03589 2.2589,1.65651 0.64344,0.62519 1.18648,1.27776 1.62001,1.96683 3.21265,-1.58806 6.07392,-3.00728 8.60206,-4.27135 1.08153,-0.54304 2.13568,-1.0724 3.16702,-1.57894 1.0222,-0.51566 1.93945,-0.96288 2.7563,-1.36446 0.80774,-0.40614 1.46487,-0.73014 1.94403,-0.99026 l 0.76209,-0.36507 v 7.40185 l -15.16426,6.81318 v 2.92514 z m -7.10982,-33.01629 v -12.46268 h 20.58105 c 0.34225,0.83055 0.64344,1.67478 0.93094,2.51901 0.27381,0.84423 0.52023,1.7204 0.70276,2.63309 0.19623,0.90812 0.34226,1.86187 0.44265,2.85213 0.11409,0.99939 0.16886,2.0581 0.16886,3.1807 0,2.35015 -0.43353,4.43107 -1.31427,6.24274 -0.87618,1.81624 -2.18589,3.34042 -3.90629,4.58167 -1.7341,1.24125 -3.86066,2.18131 -6.41162,2.82475 -2.53727,0.64344 -5.46699,0.96744 -8.79372,0.96744 -3.11226,0 -5.92333,-0.36051 -8.44691,-1.0724 -2.50988,-0.72102 -4.64556,-1.77516 -6.41617,-3.1807 -1.76148,-1.39184 -3.11682,-3.11681 -4.06145,-5.15665 -0.95376,-2.04441 -1.42378,-4.38544 -1.42378,-7.01853 0,-1.67933 0.21904,-3.32672 0.67538,-4.92392 0.45178,-1.60632 1.04502,-3.0803 1.76604,-4.41282 l 6.7265,2.21782 c -0.61151,0.96744 -1.12718,2.07179 -1.54244,3.29935 -0.41527,1.22299 -0.62063,2.51444 -0.62063,3.86064 0,1.46486 0.32401,2.77912 0.96289,3.94279 0.63888,1.16823 1.54243,2.17218 2.71979,3.00273 1.1728,0.83054 2.60116,1.46941 4.26681,1.91663 1.65653,0.44265 3.50928,0.66169 5.55369,0.66169 1.95314,0 3.74201,-0.15515 5.36203,-0.4609 1.62001,-0.31031 3.01642,-0.79404 4.19378,-1.4466 1.17736,-0.6617 2.08093,-1.51049 2.73806,-2.55551 0.648,-1.0359 0.972,-2.28171 0.972,-3.72831 0,-0.94919 -0.0548,-1.74779 -0.16428,-2.40036 -0.10036,-0.65256 -0.23273,-1.26406 -0.37876,-1.83449 h -8.28718 v 5.94613 h -7.00029 z"
      fill="#fefefe"
      fill-rule="nonzero"
      stroke-width="0.00456342"
    />
    <path
      id="path23"
      d="m 874.32959,514.90799 v -2.31365 c 0,-2.36841 -0.47459,-4.07513 -1.40553,-5.1019 -0.94463,-1.02677 -2.32735,-1.54699 -4.15728,-1.54699 -1.90295,0 -3.25372,0.55673 -4.05689,1.65651 -0.80316,1.10435 -1.20018,2.8065 -1.20018,5.12928 v 2.17675 h 10.82445 z m 6.6763,0 h 15.16426 v 8.4058 h -39.6653 v -10.86092 c 0,-5.09277 0.98114,-8.84845 2.95254,-11.27619 1.96683,-2.42317 4.95131,-3.63704 8.95344,-3.63704 1.36447,0 2.5966,0.1871 3.7055,0.54305 1.10436,0.36051 2.08093,0.84423 2.94341,1.45573 0.86249,0.5978 1.62002,1.30513 2.25889,2.09004 0.64345,0.78947 1.1865,1.61088 1.62003,2.48249 3.21265,-1.99877 6.07392,-3.79675 8.60206,-5.38482 1.08153,-0.68451 2.13568,-1.35533 3.16701,-1.99421 1.02677,-0.64801 1.94402,-1.21387 2.76087,-1.72497 0.80773,-0.50654 1.46487,-0.92637 1.94402,-1.24581 l 0.76209,-0.46547 v 9.33674 l -15.16426,8.5929 v 3.68724 z m 4.16641,-48.30828 c 1.76604,0 3.36781,0.30119 4.78703,0.90356 1.41922,0.61149 2.62853,1.49223 3.63705,2.6559 0.99939,1.16367 1.77974,2.60115 2.31366,4.29417 0.5476,1.6839 0.81685,3.62791 0.81685,5.81379 0,1.92576 -0.19167,3.76938 -0.58869,5.55367 -0.40158,1.77973 -0.99938,3.43625 -1.79798,4.95587 h -7.81715 c 0.41527,-0.87162 0.80772,-1.75235 1.19562,-2.64222 0.37877,-0.87618 0.72102,-1.78886 1.01764,-2.69241 0.30575,-0.91725 0.54761,-1.83449 0.72558,-2.75174 0.17798,-0.90356 0.26925,-1.81624 0.26925,-2.71979 0,-0.92638 -0.10036,-1.71128 -0.30118,-2.37754 -0.20536,-0.65713 -0.49286,-1.19561 -0.8625,-1.60176 -0.36051,-0.41071 -0.80772,-0.70276 -1.31427,-0.88986 -0.50197,-0.19167 -1.06783,-0.2875 -1.66564,-0.2875 -0.74384,0 -1.40098,0.15972 -1.9714,0.4746 -0.56587,0.31487 -1.10435,0.76209 -1.60177,1.33251 -0.49285,0.5613 -0.98569,1.25494 -1.4466,2.06266 -0.4746,0.80773 -0.97201,1.70672 -1.50137,2.69242 -0.4244,0.8351 -0.95376,1.7706 -1.57438,2.79737 -0.6115,1.03589 -1.36903,2.0079 -2.28628,2.92515 -0.91725,0.90355 -2.02159,1.67933 -3.31304,2.28626 -1.2869,0.61607 -2.84302,0.92638 -4.64557,0.92638 -1.77974,0 -3.36325,-0.29662 -4.75965,-0.87618 -1.4101,-0.59324 -2.5966,-1.42835 -3.55492,-2.50987 -0.972,-1.09066 -1.70671,-2.40492 -2.21782,-3.95192 -0.50654,-1.547 -0.75753,-3.28109 -0.75753,-5.19316 0,-0.96288 0.0639,-1.90294 0.1871,-2.81563 0.12778,-0.90811 0.31488,-1.81623 0.54305,-2.71066 0.23273,-0.90356 0.52936,-1.79799 0.87618,-2.70611 0.34226,-0.89899 0.73928,-1.83449 1.19105,-2.78824 l 6.53483,2.71067 c -0.37877,0.81685 -0.71189,1.57437 -1.00852,2.2817 -0.2875,0.70277 -0.52936,1.39641 -0.73015,2.06266 -0.19166,0.66626 -0.34225,1.32339 -0.44265,1.9714 -0.10036,0.63888 -0.14603,1.28688 -0.14603,1.93488 0,1.41466 0.36964,2.48706 1.11804,3.24915 0.76209,0.75297 1.75236,1.1226 2.99817,1.1226 0.67539,0 1.26863,-0.11408 1.77974,-0.33313 0.51567,-0.23273 0.99939,-0.59324 1.45117,-1.09521 0.45177,-0.48829 0.91725,-1.13629 1.37815,-1.92576 0.4746,-0.78947 1.01309,-1.73866 1.60176,-2.86126 0.72559,-1.3599 1.46487,-2.61028 2.21326,-3.74656 0.75297,-1.13629 1.58808,-2.12199 2.50076,-2.94341 0.90812,-0.82141 1.94402,-1.46029 3.10314,-1.91663 1.1591,-0.45178 2.519,-0.67538 4.07513,-0.67538 z m 10.99785,-21.85418 v 8.41037 h -32.665 v 9.94367 h -7.0003 v -28.27946 h 7.0003 v 9.92542 z"
      fill="#fefefe"
      fill-rule="nonzero"
      stroke-width="0.00456342"
    />
    <path
      id="path25"
      d="m 289.34403,973.50349 c -4.05689,0 -7.46121,-0.49742 -10.22665,-1.47855 -2.02615,-0.72558 -3.85153,-1.72953 -5.46242,-2.99816 -1.60633,-1.26863 -2.80194,-2.65591 -3.59141,-4.16183 -1.04503,-2.01247 -1.56982,-4.32612 -1.56982,-6.95464 0,-4.75051 1.8208,-8.54727 5.46242,-11.40397 3.65074,-2.84757 8.71615,-4.27135 15.20534,-4.27135 6.43443,0 11.46788,1.41922 15.10037,4.24397 3.63249,2.82475 5.45329,6.61239 5.45329,11.34464 0,4.79159 -1.80711,8.61116 -5.42591,11.43591 -3.61423,2.82475 -8.59293,4.24398 -14.94521,4.24398 z m -0.27381,-6.70366 c 4.51323,0 7.93123,-0.84423 10.26314,-2.53725 2.32279,-1.6839 3.48646,-3.82871 3.48646,-6.42529 0,-2.60114 -1.15911,-4.73225 -3.46365,-6.40246 -2.31365,-1.66565 -5.77729,-2.50075 -10.39548,-2.50075 -4.56799,0 -7.9723,0.81228 -10.2175,2.43686 -2.24977,1.62001 -3.36782,3.76938 -3.36782,6.46635 0,2.68329 1.13629,4.85091 3.40432,6.49374 2.27715,1.64739 5.70429,2.4688 10.2814,2.4688 z m 19.91935,-31.2183 h -39.77482 v -6.31576 l 26.65497,-13.25671 h -26.65497 v -6.02827 h 39.77482 v 6.51656 l -26.14387,13.05592 h 26.14387 z"
      fill="#fefefe"
      fill-rule="nonzero"
      stroke-width="0.00456342"
    />
    <path
      id="path27"
      d="m 1185.6602,0 h 97.2238 v 142.36019 h -97.2238 z m 48.6096,56.362698 c 19.568,0 35.4351,15.866982 35.4351,35.434891 0,19.567911 -15.8671,35.434891 -35.4351,35.434891 -19.568,0 -35.435,-15.86698 -35.435,-35.434891 0,-19.567909 15.867,-35.434891 35.435,-35.434891 z"
      fill="#fefefe"
      stroke-width="0.00456342"
    />
    <rect
      id="rect37"
      width="49.476662"
      ry="4.157268"
      rx="4.1572809"
      height="118.05546"
      x="1163.6964"
      y="616.22485"
      fill="#bdbfc1"
      stroke="#a98f71"
      stroke-width="6.94483852"
    />
    <rect
      id="rect39"
      width="73.096954"
      height="156.01848"
      x="890.78528"
      y="647.62573"
      fill="#303030"
      stroke-width="0.00456342"
    />
    <polygon
      id="polygon41"
      points="211182,141918 212429,140464 212429,177506 212429,177558 211182,176105 "
      transform="scale(0.00456342,0.00456341)"
      fill="#3d3e3d"
    />
    <polygon
      id="polygon43"
      points="195232,141918 195232,176105 193986,177563 193986,176105 193986,141918 193986,140464 "
      transform="scale(0.00456342,0.00456341)"
      fill="#000000"
    />
    <polygon
      id="polygon45"
      points="195232,176105 211182,176105 212429,177563 193986,177563 "
      transform="scale(0.00456342,0.00456341)"
      fill="#1e1f1f"
    />
    <polygon
      id="polygon47"
      points="212429,140464 211182,141918 195232,141918 193986,140464 "
      transform="scale(0.00456342,0.00456341)"
      fill="#1e1f1f"
    />
    <rect
      id="rect51"
      width="36.334"
      height="19.622669"
      x="969.40399"
      y="659.737"
      fill="#bdbfc1"
      stroke-width="0.00456342"
    />
    <rect
      id="rect53"
      width="10.833573"
      height="19.622669"
      x="983.87921"
      y="659.737"
      fill="#666766"
      stroke-width="0.00456342"
    />
    <rect
      id="rect57"
      width="44.872169"
      height="77.92025"
      x="840.37775"
      y="689.82819"
      fill="#bdbfc1"
      stroke-width="0.00456342"
    />
    <rect
      id="rect59"
      width="10.933969"
      height="77.92025"
      x="852.99103"
      y="689.82819"
      fill="#666766"
      stroke-width="0.00456342"
    />
    <rect
      id="rect63"
      width="36.334"
      height="19.622669"
      x="969.40399"
      y="716.91656"
      fill="#bdbfc1"
      stroke-width="0.00456342"
    />
    <rect
      id="rect65"
      width="10.833573"
      height="19.622669"
      x="983.87921"
      y="716.91656"
      fill="#666766"
      stroke-width="0.00456342"
    />
    <rect
      id="rect69"
      width="36.334"
      height="19.622669"
      x="969.40399"
      y="776.90265"
      fill="#bdbfc1"
      stroke-width="0.00456342"
    />
    <rect
      id="rect71"
      width="10.833573"
      height="19.622669"
      x="983.87921"
      y="776.90265"
      fill="#666766"
      stroke-width="0.00456342"
    />
    <rect
      id="rect77"
      width="16.870987"
      height="13.512261"
      x="244.54944"
      y="438.05557"
      fill="#666666"
      stroke-width="0.00456342"
    />
    <rect
      id="rect79"
      width="14.972601"
      height="1.2275578"
      x="246.45694"
      y="438.05557"
      fill="#999999"
      stroke-width="0.00456342"
    />
    <rect
      id="rect83"
      width="16.870987"
      height="13.512261"
      x="244.54944"
      y="463.24561"
      fill="#666666"
      stroke-width="0.00456342"
    />
    <rect
      id="rect85"
      width="14.972601"
      height="1.2275578"
      x="246.45694"
      y="463.23648"
      fill="#999999"
      stroke-width="0.00456342"
    />
    <rect
      id="rect89"
      width="16.870987"
      height="13.512261"
      x="244.54944"
      y="488.37631"
      fill="#666666"
      stroke-width="0.00456342"
    />
    <rect
      id="rect91"
      width="14.972601"
      height="1.2138675"
      x="246.45694"
      y="488.37631"
      fill="#999999"
      stroke-width="0.00456342"
    />
    <rect
      id="rect95"
      width="16.870987"
      height="13.512261"
      x="244.54944"
      y="513.54358"
      fill="#666666"
      stroke-width="0.00456342"
    />
    <rect
      id="rect97"
      width="14.972601"
      height="1.2001773"
      x="246.45694"
      y="513.54358"
      fill="#999999"
      stroke-width="0.00456342"
    />
    <rect
      id="rect101"
      width="16.870987"
      height="13.503135"
      x="244.54944"
      y="538.68793"
      fill="#666666"
      stroke-width="0.00456342"
    />
    <rect
      id="rect103"
      width="14.972601"
      height="1.2001773"
      x="246.45694"
      y="538.68793"
      fill="#999999"
      stroke-width="0.00456342"
    />
    <polygon
      id="polygon107"
      points="54438,80367 54438,136737 3557,136733 3557,80367 "
      transform="scale(0.00456342,0.00456341)"
      fill="#b3b3b3"
    />
    <rect
      id="rect109"
      width="41.508923"
      height="13.585277"
      x="116.63204"
      y="626.7572"
      fill="#666666"
      stroke-width="0.00456342"
    />
    <rect
      id="rect111"
      width="41.508923"
      height="13.690235"
      x="116.63204"
      y="349.88589"
      fill="#666666"
      stroke-width="0.00456342"
    />
    <rect
      id="rect113"
      width="1.7751726"
      height="257.2532"
      x="246.64861"
      y="366.75226"
      fill="#cccccc"
      stroke-width="0.00456342"
    />
    <rect
      id="rect115"
      width="213.15306"
      height="140.46181"
      x="35.27528"
      y="424.91293"
      fill="#333333"
      stroke-width="0.00456342"
    />
    <polygon
      id="polygon117"
      points="0,77761 0,76672 4664,79673 3237,79673 "
      transform="scale(0.00456342,0.00456341)"
      fill="#b3b3b3"
    />
    <polygon
      id="polygon119"
      points="1625,79673 0,77761 3237,79673 3237,79676 "
      transform="scale(0.00456342,0.00456341)"
      fill="#cccccc"
    />
    <polygon
      id="polygon121"
      points="3237,137333 4664,137333 0,140332 0,139243 "
      transform="scale(0.00456342,0.00456341)"
      fill="#b3b3b3"
    />
    <polygon
      id="polygon123"
      points="3237,137329 3237,137333 0,139243 1625,137333 "
      transform="scale(0.00456342,0.00456341)"
      fill="#cccccc"
    />
    <rect
      id="rect125"
      width="8.8484831"
      height="6.5256786"
      x="21.311199"
      y="548.84613"
      fill="#f2f2f2"
      stroke-width="0.00456342"
    />
    <rect
      id="rect129"
      width="8.8484831"
      height="6.5348053"
      x="21.311199"
      y="520.35675"
      fill="#f2f2f2"
      stroke-width="0.00456342"
    />
    <rect
      id="rect133"
      width="8.8484831"
      height="6.5119886"
      x="21.311199"
      y="491.90839"
      fill="#f2f2f2"
      stroke-width="0.00456342"
    />
    <rect
      id="rect137"
      width="8.8484831"
      height="6.5119886"
      x="21.311199"
      y="463.42813"
      fill="#f2f2f2"
      stroke-width="0.00456342"
    />
    <rect
      id="rect141"
      width="8.8484831"
      height="6.5119886"
      x="21.311199"
      y="434.9707"
      fill="#f2f2f2"
      stroke-width="0.00456342"
    />
    <rect
      id="rect145"
      width="8.8484831"
      height="1.3096992"
      x="21.311199"
      y="434.9707"
      fill="#808080"
      stroke-width="0.00456342"
    />
    <rect
      id="rect149"
      width="8.8484831"
      height="1.3279527"
      x="21.311199"
      y="463.43271"
      fill="#808080"
      stroke-width="0.00456342"
    />
    <rect
      id="rect153"
      width="8.8484831"
      height="1.3370796"
      x="21.311199"
      y="491.90839"
      fill="#808080"
      stroke-width="0.00456342"
    />
    <rect
      id="rect157"
      width="8.8484831"
      height="1.3370796"
      x="21.311199"
      y="520.37042"
      fill="#808080"
      stroke-width="0.00456342"
    />
    <rect
      id="rect161"
      width="8.8484831"
      height="1.3370796"
      x="21.311199"
      y="548.8598"
      fill="#808080"
      stroke-width="0.00456342"
    />
    <path
      id="path167"
      d="m 18.783061,427.96587 v 7.03678 h 5.40766 v 6.50742 h -5.40766 v 21.95458 l 5.40766,-0.005 v 6.51199 h -5.40766 v 21.95458 h 5.40766 v 6.50742 h -5.40766 v 21.93632 h 5.40766 v 6.53938 h -5.40766 v 21.93632 h 5.40766 v 6.52568 l -5.40766,-0.005 v 4.40826 3.70093 c 0,1.06327 0.862488,1.98052 1.994217,1.98052 h 14.525385 c 1.095223,0 1.994217,-0.86249 1.994217,-1.98052 v -136.56011 c 0,-1.06327 -0.862487,-1.99421 -1.994217,-1.99421 h -14.525385 c -1.049588,0 -1.994217,0.87618 -1.994217,1.99421 z"
      fill="#4d4d4d"
      stroke-width="0.00456342"
    />
    <path
      id="path169"
      d="m 240.67965,363.58069 7.73957,3.12594 v 34.59522 c 0,0 -1.52875,-31.43734 -3.85153,-32.55538 -2.31823,-1.11803 -3.88804,1.48311 -3.88804,1.48311 z"
      fill="#cccccc"
      stroke-width="0.00456342"
    />
    <path
      id="path171"
      d="m 240.67965,626.70702 7.73045,-3.12594 v -34.59522 c 0,0 -1.54245,31.42365 -3.86066,32.54168 -2.32279,1.1226 -3.86523,-1.47398 -3.86523,-1.47398 v 6.64889 z"
      fill="#cccccc"
      stroke-width="0.00456342"
    />
    <path
      id="path173"
      d="m 248.42378,580.44315 h -22.31971 v -21.89525 h 22.31971 v -6.29751 h -7.71219 v -114.15831 h 7.71219 v -7.14174 h -22.33341 v -21.90894 l 22.33341,0.005 v -45.38769 l -232.168857,-0.005 v 263.07156 h 232.168857 v -46.28668 z m -189.158567,-149.53845 h -11.093689 v -21.75378 l 12.024628,-0.005 c 3.769389,-5.83204 10.372667,-9.66531 17.842995,-9.66531 8.159406,0 15.082123,3.00273 18.687229,9.66531 v 0 h 61.140784 v 21.74465 h -61.1636 c -3.605107,6.6352 -10.550641,11.24881 -18.71461,11.24881 -8.154842,0.0137 -15.127757,-4.57253 -18.719174,-11.23055 z m 0,148.62577 h -11.093689 v -21.72641 l 12.024628,-0.009 c 3.769389,-5.83204 10.372667,-9.65162 17.842995,-9.65162 8.159406,0 15.082123,2.96622 18.687229,9.65162 v 0 h 61.140784 v 21.73096 l -61.1636,0.005 c -3.605107,6.6854 -10.550641,11.27162 -18.71461,11.27162 -8.154842,0 -15.127757,-4.57253 -18.719174,-11.27162 z"
      fill="#e6e6e6"
      stroke-width="0.00456342"
    />
    <polygon
      id="polygon175"
      points="52741,79673 52741,84255 3557,80890 3557,79673 "
      transform="scale(0.00456342,0.00456341)"
      fill="#f2f2f2"
    />
    <polygon
      id="polygon177"
      points="52741,133934 52741,137333 3557,137333 36400,135626 "
      transform="scale(0.00456342,0.00456341)"
      fill="#999999"
    />
    <rect
      id="rect179"
      width="1.7888629"
      height="21.744656"
      x="156.06917"
      y="409.16003"
      fill="#cccccc"
      stroke-width="0.00456342"
    />
    <rect
      id="rect181"
      width="1.7888629"
      height="21.72184"
      x="156.06917"
      y="557.82233"
      fill="#cccccc"
      stroke-width="0.00456342"
    />
    <rect
      id="rect183"
      width="9.0082035"
      height="237.33847"
      x="19.002106"
      y="376.49969"
      fill="#b3b3b3"
      stroke-width="0.00456342"
    />
    <rect
      id="rect185"
      width="4.2713666"
      height="237.33847"
      x="16.232105"
      y="376.49969"
      fill="#cccccc"
      stroke-width="0.00456342"
    />
    <polygon
      points="155220,133697 150418,133697 150418,164054 155220,164054 "
      id="polygon190"
      transform="scale(0.00456342,0.00456341)"
      fill="#b7b7b7"
    />
    <polygon
      points="135191,133697 130396,133697 130396,164054 135191,164054 "
      id="polygon192"
      transform="scale(0.00456342,0.00456341)"
      fill="#b7b7b7"
    />
    <rect
      id="rect198"
      width="313.229"
      height="199.14728"
      x="496.56009"
      y="720.7179"
      fill="#ad9e73"
      stroke-width="0.00456342"
    />
    <polygon
      id="polygon202"
      points="127998,170171 158082,170171 158082,167348 163156,167348 163156,157941 122542,157941 122542,167348 127998,167348 "
      transform="scale(0.00456342,0.00456341)"
      fill="#c2b990"
    />
    <rect
      id="rect206"
      width="236.01126"
      height="36.854111"
      x="535.17126"
      y="919.87427"
      fill="#f1f3e6"
      stroke-width="0.00456342"
    />
    <polygon
      points="122542,175368 127998,175368 158082,175368 163156,175368 163156,167358 158082,167358 158082,170188 127998,170188 127998,167358 122542,167358 "
      enable-background="new    "
      id="polygon210"
      transform="scale(0.00456342,0.00456341)"
      fill="#a0916b"
      fill-opacity="0.50196078"
    />
    <polygon
      id="polygon212"
      enable-background="new    "
      points="122537,194331 163162,194331 163161,179757 122537,179757 "
      transform="scale(0.00456342,0.00456341)"
      fill="#ffffff"
      fill-opacity="0.10196102"
    />
    <polygon
      id="polygon216"
      enable-background="new    "
      points="122533,200212 163159,200212 163159,185638 122533,185638 "
      transform="scale(0.00456342,0.00456341)"
      fill="#ffffff"
      fill-opacity="0.10196102"
    />
    <polygon
      points="177451,157941 177451,144257 168992,144257 168992,157941 "
      id="polygon220"
      transform="scale(0.00456342,0.00456341)"
      fill="#f1f3e6"
    />
    <polygon
      points="117277,157941 117277,144257 108813,144257 108813,157941 "
      id="polygon226"
      transform="scale(0.00456342,0.00456341)"
      fill="#f1f3e6"
    />
    <polygon
      points="122542,192918 122542,157941 108813,157941 108813,201572 177451,201572 177451,157941 163156,157941 163156,192918 154699,192918 154699,157941 131008,157941 131008,192918 "
      id="polygon232"
      transform="scale(0.00456342,0.00456341)"
      fill="#f1f3e6"
    />
    <polygon
      id="polygon238"
      enable-background="new    "
      points="108814,157939 117273,157939 117273,157052 108814,157052 "
      transform="scale(0.00456342,0.00456341)"
      fill="#c2b990"
      fill-opacity="0.4"
    />
    <polygon
      id="polygon242"
      enable-background="new    "
      points="168991,157943 177450,157943 177450,157051 168991,157051 "
      transform="scale(0.00456342,0.00456341)"
      fill="#c2b990"
      fill-opacity="0.4"
    />
    <polygon
      id="connector28pin"
      enable-background="new    "
      points="163159,209652 163159,201573 154700,201573 154700,209652 "
      transform="scale(0.00456342,0.00456341)"
      fill="#ad9e73"
      fill-opacity="0.4"
    />
    <polygon
      id="connector29pin"
      enable-background="new    "
      points="131005,209657 131005,201578 122541,201578 122541,209657 "
      transform="scale(0.00456342,0.00456341)"
      fill="#ad9e73"
      fill-opacity="0.4"
    />
    <rect
      y="541.38037"
      x="598.49786"
      height="15.748334"
      width="8.4651546"
      id="rect256"
      fill="#d2d3d5"
      stroke-width="0.00456342"
    />
    <rect
      y="546.04871"
      x="598.49786"
      height="3.979295"
      width="8.4651546"
      id="rect258"
      fill="#666766"
      stroke-width="0.00456342"
    />
    <rect
      y="541.38037"
      x="625.73236"
      height="15.748334"
      width="8.4605913"
      id="rect262"
      fill="#d2d3d5"
      stroke-width="0.00456342"
    />
    <rect
      y="546.04871"
      x="625.73236"
      height="3.979295"
      width="8.4605913"
      id="rect264"
      fill="#666766"
      stroke-width="0.00456342"
    />
    <rect
      y="541.38037"
      x="653.11292"
      height="15.748334"
      width="8.4651546"
      id="rect268"
      fill="#d2d3d5"
      stroke-width="0.00456342"
    />
    <rect
      y="546.04871"
      x="653.11292"
      height="3.979295"
      width="8.4651546"
      id="rect270"
      fill="#666766"
      stroke-width="0.00456342"
    />
    <rect
      y="450.6597"
      x="653.92072"
      height="15.739206"
      width="8.4651546"
      id="rect276"
      fill="#d2d3d5"
      stroke-width="0.00456342"
    />
    <rect
      y="457.76038"
      x="653.92072"
      height="3.979295"
      width="8.4651546"
      id="rect278"
      fill="#666766"
      stroke-width="0.00456342"
    />
    <rect
      y="450.6597"
      x="626.85046"
      height="15.739206"
      width="8.4651546"
      id="rect282"
      fill="#d2d3d5"
      stroke-width="0.00456342"
    />
    <rect
      y="457.76038"
      x="626.85046"
      height="3.979295"
      width="8.4651546"
      id="rect284"
      fill="#666766"
      stroke-width="0.00456342"
    />
    <rect
      y="450.66882"
      x="598.49786"
      height="15.739206"
      width="8.4651546"
      id="rect288"
      fill="#d2d3d5"
      stroke-width="0.00456342"
    />
    <rect
      y="457.7695"
      x="598.49786"
      height="3.979295"
      width="8.4651546"
      id="rect290"
      fill="#666766"
      stroke-width="0.00456342"
    />
    <rect
      y="466.40347"
      x="592.49243"
      height="74.981415"
      width="73.462029"
      id="rect296"
      fill="#2d2d2d"
      stroke-width="0.00456342"
    />
    <ellipse
      cx="604.93231"
      cy="524.55048"
      id="circle298"
      rx="5.5582523"
      ry="5.5582352"
      fill="#232323"
      stroke-width="0.00456342"
    />
    <polygon
      points="145932,118040 130341,118040 129835,118636 146438,118636 "
      id="polygon300"
      transform="scale(0.00456342,0.00456341)"
      fill="#191919"
    />
    <polygon
      points="145932,118040 146438,118636 146438,102204 145932,102834 "
      id="polygon302"
      transform="scale(0.00456342,0.00456341)"
      fill="#3d3d3d"
    />
    <polygon
      points="129835,118636 130341,118040 130341,102834 129835,102204 "
      id="polygon304"
      transform="scale(0.00456342,0.00456341)"
      fill="#232323"
    />
    <polygon
      points="145932,102834 130341,102834 129835,102204 146438,102204 "
      id="polygon306"
      transform="scale(0.00456342,0.00456341)"
      fill="#191919"
    />
    <rect
      y="259.50296"
      x="1051.8561"
      height="31.496668"
      width="8.4651546"
      id="rect1870"
      fill="#bdbfc1"
      stroke-width="0.00456342"
    />
    <rect
      y="268.83969"
      x="1051.8561"
      height="7.95859"
      width="8.4651546"
      id="rect1872"
      fill="#666766"
      stroke-width="0.00456342"
    />
    <rect
      y="259.50296"
      x="1079.0906"
      height="31.496668"
      width="8.4605913"
      id="rect1876"
      fill="#bdbfc1"
      stroke-width="0.00456342"
    />
    <rect
      y="268.83969"
      x="1079.0906"
      height="7.95859"
      width="8.4605913"
      id="rect1878"
      fill="#666766"
      stroke-width="0.00456342"
    />
    <rect
      y="259.50296"
      x="1106.4711"
      height="31.496668"
      width="8.4651546"
      id="rect1882"
      fill="#bdbfc1"
      stroke-width="0.00456342"
    />
    <rect
      y="268.83969"
      x="1106.4711"
      height="7.95859"
      width="8.4651546"
      id="rect1884"
      fill="#666766"
      stroke-width="0.00456342"
    />
    <rect
      y="176.3576"
      x="1107.2788"
      height="31.47385"
      width="8.4651546"
      id="rect1890"
      fill="#bdbfc1"
      stroke-width="0.00456342"
    />
    <rect
      y="190.55437"
      x="1107.2788"
      height="7.9540267"
      width="8.4651546"
      id="rect1892"
      fill="#666766"
      stroke-width="0.00456342"
    />
    <rect
      y="176.3576"
      x="1080.2085"
      height="31.47385"
      width="8.4651546"
      id="rect1896"
      fill="#bdbfc1"
      stroke-width="0.00456342"
    />
    <rect
      y="190.55437"
      x="1080.2085"
      height="7.9540267"
      width="8.4651546"
      id="rect1898"
      fill="#666766"
      stroke-width="0.00456342"
    />
    <rect
      y="176.37585"
      x="1051.8561"
      height="31.47385"
      width="8.4651546"
      id="rect1902"
      fill="#bdbfc1"
      stroke-width="0.00456342"
    />
    <rect
      y="190.57263"
      x="1051.8561"
      height="7.9540267"
      width="8.4651546"
      id="rect1904"
      fill="#666766"
      stroke-width="0.00456342"
    />
    <rect
      y="210.72466"
      x="1045.8505"
      height="48.778309"
      width="73.462029"
      id="rect1910"
      fill="#2d2d2d"
      stroke-width="0.00456342"
    />
    <ellipse
      cx="1058.2904"
      cy="242.66853"
      id="circle1912"
      rx="5.5582523"
      ry="5.5582352"
      fill="#232323"
      stroke-width="0.00456342"
    />
    <polygon
      points="245278,56271 229687,56271 229181,56866 245784,56866 "
      id="polygon1914"
      transform="scale(0.00456342,0.00456341)"
      fill="#191919"
    />
    <polygon
      points="245278,56271 245784,56866 245784,45547 245278,46177 "
      id="polygon1916"
      transform="scale(0.00456342,0.00456341)"
      fill="#3d3d3d"
    />
    <polygon
      points="229181,56866 229687,56271 229687,46177 229181,45547 "
      id="polygon1918"
      transform="scale(0.00456342,0.00456341)"
      fill="#232323"
    />
    <polygon
      points="245278,46177 229687,46177 229181,45547 245784,45547 "
      id="polygon1920"
      transform="scale(0.00456342,0.00456341)"
      fill="#191919"
    />
    <rect
      y="755.24011"
      x="397.33749"
      height="15.748334"
      width="8.4651546"
      id="rect1924"
      fill="#d2d3d5"
      stroke-width="0.00456342"
    />
    <rect
      y="759.90393"
      x="397.33749"
      height="3.979295"
      width="8.4651546"
      id="rect1926"
      fill="#666766"
      stroke-width="0.00456342"
    />
    <rect
      y="755.24011"
      x="424.5766"
      height="15.748334"
      width="8.4605913"
      id="rect1930"
      fill="#d2d3d5"
      stroke-width="0.00456342"
    />
    <rect
      y="759.90393"
      x="424.5766"
      height="3.979295"
      width="8.4605913"
      id="rect1932"
      fill="#666766"
      stroke-width="0.00456342"
    />
    <rect
      y="755.24011"
      x="451.95715"
      height="15.748334"
      width="8.4651546"
      id="rect1936"
      fill="#d2d3d5"
      stroke-width="0.00456342"
    />
    <rect
      y="759.90393"
      x="451.95715"
      height="3.979295"
      width="8.4651546"
      id="rect1938"
      fill="#666766"
      stroke-width="0.00456342"
    />
    <rect
      y="664.51947"
      x="452.76489"
      height="15.739206"
      width="8.4651546"
      id="rect1944"
      fill="#d2d3d5"
      stroke-width="0.00456342"
    />
    <rect
      y="671.61554"
      x="452.76489"
      height="3.979295"
      width="8.4651546"
      id="rect1946"
      fill="#666766"
      stroke-width="0.00456342"
    />
    <rect
      y="664.51947"
      x="425.69464"
      height="15.739206"
      width="8.4651546"
      id="rect1950"
      fill="#d2d3d5"
      stroke-width="0.00456342"
    />
    <rect
      y="671.61554"
      x="425.69464"
      height="3.979295"
      width="8.4651546"
      id="rect1952"
      fill="#666766"
      stroke-width="0.00456342"
    />
    <rect
      y="664.52856"
      x="397.33749"
      height="15.739206"
      width="8.4651546"
      id="rect1956"
      fill="#d2d3d5"
      stroke-width="0.00456342"
    />
    <rect
      y="671.62469"
      x="397.33749"
      height="3.979295"
      width="8.4651546"
      id="rect1958"
      fill="#666766"
      stroke-width="0.00456342"
    />
    <rect
      y="680.25867"
      x="391.33203"
      height="74.981415"
      width="73.462029"
      id="rect1964"
      fill="#2d2d2d"
      stroke-width="0.00456342"
    />
    <ellipse
      cx="403.77649"
      cy="738.4057"
      id="circle1966"
      rx="5.5582523"
      ry="5.5582352"
      fill="#232323"
      stroke-width="0.00456342"
    />
    <polygon
      points="101852,164904 86261,164904 85754,165499 102358,165499 "
      id="polygon1968"
      transform="scale(0.00456342,0.00456341)"
      fill="#191919"
    />
    <polygon
      points="101852,164904 102358,165499 102358,149068 101852,149697 "
      id="polygon1970"
      transform="scale(0.00456342,0.00456341)"
      fill="#3d3d3d"
    />
    <polygon
      points="85754,165499 86261,164904 86261,149697 85754,149068 "
      id="polygon1972"
      transform="scale(0.00456342,0.00456341)"
      fill="#232323"
    />
    <polygon
      points="101852,149697 86261,149697 85754,149068 102358,149068 "
      id="polygon1974"
      transform="scale(0.00456342,0.00456341)"
      fill="#191919"
    />
    <rect
      y="311.64777"
      x="-511.25269"
      id="rect2678"
      width="48.337708"
      height="103.17371"
      transform="rotate(-90)"
      fill="#303030"
      stroke-width="0.0019488"
    />
    <polygon
      id="polygon2704"
      points="68293,101466 67332,100640 91827,100640 91862,100640 90901,101466 "
      transform="scale(0.00456342,0.00456341)"
      fill="#3d3e3d"
    />
    <polygon
      id="polygon2706"
      points="68293,112012 90901,112012 91864,112836 90901,112836 68293,112836 67332,112836 "
      transform="scale(0.00456342,0.00456341)"
      fill="#000000"
    />
    <polygon
      id="polygon2708"
      points="90901,112012 90901,101466 91864,100640 91864,112836 "
      transform="scale(0.00456342,0.00456341)"
      fill="#1e1f1f"
    />
    <polygon
      id="polygon2710"
      points="67332,100640 68293,101466 68293,112012 67332,112836 "
      transform="scale(0.00456342,0.00456341)"
      fill="#1e1f1f"
    />
    <rect
      y="319.65933"
      x="-547.18958"
      id="rect2714"
      width="32.26643"
      height="30.631565"
      transform="rotate(-90)"
      fill="#d2d3d5"
      stroke-width="0.0034697"
    />
    <rect
      y="319.65933"
      x="-534.33447"
      id="rect2740"
      width="9.6231375"
      height="30.631565"
      transform="rotate(-90)"
      fill="#666766"
      stroke-width="0.0034697"
    />
    <rect
      y="397.13669"
      x="-547.18958"
      id="rect2768"
      width="32.26643"
      height="12.977102"
      transform="rotate(-90)"
      fill="#d2d3d5"
      stroke-width="0.00225837"
    />
    <rect
      y="397.13669"
      x="-534.33447"
      id="rect2794"
      width="9.6231375"
      height="12.977102"
      transform="rotate(-90)"
      fill="#666766"
      stroke-width="0.00225837"
    />
    <rect
      y="319.65979"
      x="426.99432"
      id="rect2822"
      width="32.26643"
      height="12.977102"
      transform="matrix(0,1,1,0,0,0)"
      fill="#d2d3d5"
      stroke-width="0.00225837"
    />
    <rect
      y="319.65979"
      x="439.84851"
      id="rect2848"
      width="9.6231375"
      height="12.977102"
      transform="matrix(0,1,1,0,0,0)"
      fill="#666766"
      stroke-width="0.00225837"
    />
    <rect
      y="397.14035"
      x="426.99432"
      id="rect2876"
      width="32.26643"
      height="12.977102"
      transform="matrix(0,1,1,0,0,0)"
      fill="#d2d3d5"
      stroke-width="0.00225837"
    />
    <rect
      y="397.14035"
      x="439.84851"
      id="rect2902"
      width="9.6231375"
      height="12.977102"
      transform="matrix(0,1,1,0,0,0)"
      fill="#666766"
      stroke-width="0.00225837"
    />
    <rect
      y="728.50989"
      x="-595.82184"
      id="rect2932"
      width="166.74104"
      height="27.786823"
      transform="rotate(-90)"
      fill="#e6e6e6"
      stroke-width="0.00515429"
    />
    <rect
      y="797.19403"
      x="-595.82184"
      id="rect2958"
      width="166.74104"
      height="24.647854"
      transform="rotate(-90)"
      fill="#e6e6e6"
      stroke-width="0.00515429"
    />
    <rect
      height="103.16844"
      width="127.27985"
      id="rect2986"
      x="-576.11249"
      y="723.59052"
      transform="rotate(-90)"
      fill="#cccccc"
      stroke-width="0.00515429"
    />
    <rect
      height="1.3298091"
      width="127.27985"
      id="rect3012"
      x="-576.11249"
      y="723.59052"
      transform="rotate(-90)"
      fill="#b3b3b3"
      stroke-width="0.00515429"
    />
    <rect
      height="1.3298091"
      width="19.71513"
      id="rect3038"
      x="-595.82184"
      y="728.50989"
      transform="rotate(-90)"
      fill="#f2f2f2"
      stroke-width="0.00515429"
    />
    <rect
      height="1.3298091"
      width="19.746056"
      id="rect3064"
      x="-448.82428"
      y="728.50989"
      transform="rotate(-90)"
      fill="#f2f2f2"
      stroke-width="0.00515429"
    />
    <rect
      height="1.3298091"
      width="19.71513"
      id="rect3090"
      x="-595.82184"
      y="797.19403"
      transform="rotate(-90)"
      fill="#f2f2f2"
      stroke-width="0.00515429"
    />
    <rect
      height="1.3298091"
      width="19.746056"
      id="rect3116"
      x="-448.82428"
      y="797.19403"
      transform="rotate(-90)"
      fill="#f2f2f2"
      stroke-width="0.00515429"
    />
    <ellipse
      id="circle3142"
      cx="-512.49854"
      cy="775.16638"
      transform="rotate(-90)"
      rx="39.224087"
      ry="39.224209"
      fill="#f2f2f2"
      stroke-width="0.00515429"
    />
    <rect
      height="0.96385378"
      width="127.27985"
      id="rect3168"
      x="-576.11249"
      y="825.79303"
      transform="rotate(-90)"
      fill="#b3b3b3"
      stroke-width="0.00515429"
    />
    <rect
      height="0.96385378"
      width="19.71513"
      id="rect3194"
      x="-595.82184"
      y="820.87817"
      transform="rotate(-90)"
      fill="#cccccc"
      stroke-width="0.00515429"
    />
    <rect
      height="0.96385378"
      width="19.746056"
      id="rect3220"
      x="-448.82428"
      y="820.87817"
      transform="rotate(-90)"
      fill="#cccccc"
      stroke-width="0.00515429"
    />
    <rect
      height="0.96385378"
      width="19.71513"
      id="rect3246"
      x="-595.82184"
      y="755.3291"
      transform="rotate(-90)"
      fill="#cccccc"
      stroke-width="0.00515429"
    />
    <rect
      height="0.96385378"
      width="19.746056"
      id="rect3272"
      x="-448.82428"
      y="755.3291"
      transform="rotate(-90)"
      fill="#cccccc"
      stroke-width="0.00515429"
    />
    <path
      d="m 773.8247,473.23947 c 21.66258,0 39.23633,17.55545 39.23633,39.22253 0,21.66709 -17.51898,39.24991 -39.23633,39.24991 h 1.34165 c 21.67171,0 39.23634,-17.53263 39.23634,-39.24991 0,-21.67164 -17.519,-39.22253 -39.23634,-39.22253 z"
      id="path3298"
      fill="#b3b3b3"
      stroke-width="0.00456342"
    />
    <path
      d="m 776.33458,551.69822 c -21.66258,0 -39.22264,-17.5737 -39.22264,-39.24991 0,-21.67164 17.5053,-39.24991 39.22264,-39.24991 h -1.17736 c -21.67627,0 -39.22721,17.55545 -39.22721,39.24991 0,21.67621 17.50987,39.24991 39.22721,39.24991 z"
      id="path3300"
      fill="#fefefe"
      stroke-width="0.00456342"
    />
    <rect
      y="595.41113"
      x="496.09006"
      height="32.988903"
      width="60.762016"
      id="rect3304"
      fill="#e6e7e8"
      stroke-width="0.00456342"
    />
    <rect
      y="607.99707"
      x="514.31635"
      height="7.8216877"
      width="24.30937"
      id="rect3306"
      fill="#4b4b4d"
      stroke-width="0.00456342"
    />
    <rect
      y="884.04242"
      x="373.48901"
      height="34.353363"
      width="66.72641"
      id="rect3310"
      fill="#020202"
      stroke-width="0.00456342"
    />
    <rect
      y="884.04242"
      x="432.50327"
      height="34.353363"
      width="7.7121902"
      id="rect3312"
      fill="#c6c6c5"
      stroke-width="0.00456342"
    />
    <rect
      y="884.04242"
      x="373.48901"
      height="34.353363"
      width="7.9357977"
      id="rect3314"
      fill="#c6c6c5"
      stroke-width="0.00456342"
    />
    <rect
      y="174.61438"
      x="927.96808"
      height="20.001432"
      width="39.998428"
      id="rect3342"
      fill="#c6c6c5"
      stroke-width="0.00456342"
    />
    <rect
      y="174.61438"
      x="935.81262"
      height="20.001432"
      width="24.304808"
      id="rect3344"
      fill="#020202"
      stroke-width="0.00456342"
    />
    <rect
      y="785.30841"
      x="342.88214"
      height="20.001432"
      width="39.998428"
      id="rect3366"
      fill="#c6c6c5"
      stroke-width="0.00456342"
    />
    <rect
      y="785.30841"
      x="350.73123"
      height="20.001432"
      width="24.304808"
      id="rect3368"
      fill="#020202"
      stroke-width="0.00456342"
    />
    <rect
      y="829.12628"
      x="342.88214"
      height="20.001432"
      width="39.998428"
      id="rect3372"
      fill="#c6c6c5"
      stroke-width="0.00456342"
    />
    <rect
      y="829.12628"
      x="350.73123"
      height="20.001432"
      width="24.304808"
      id="rect3374"
      fill="#020202"
      stroke-width="0.00456342"
    />
    <rect
      height="20.000053"
      width="40.000595"
      id="rect3378"
      x="-234.76292"
      y="1145.0046"
      transform="rotate(-90)"
      fill="#c6c6c5"
      stroke-width="0.00305543"
    />
    <rect
      height="20.000053"
      width="24.304813"
      id="rect3404"
      x="-226.9147"
      y="1145.0046"
      transform="rotate(-90)"
      fill="#020202"
      stroke-width="0.00238169"
    />
    <rect
      height="20.000053"
      width="40.000595"
      id="rect3486"
      x="-379.08487"
      y="853.75311"
      transform="rotate(-90)"
      fill="#c6c6c5"
      stroke-width="0.00305543"
    />
    <rect
      height="20.000053"
      width="24.304813"
      id="rect3512"
      x="-371.23715"
      y="853.75311"
      transform="rotate(-90)"
      fill="#020202"
      stroke-width="0.00238169"
    />
    <rect
      height="20.000053"
      width="40.000595"
      id="rect3540"
      x="-379.08487"
      y="635.00073"
      transform="rotate(-90)"
      fill="#c6c6c5"
      stroke-width="0.00305543"
    />
    <rect
      height="20.000053"
      width="24.304813"
      id="rect3566"
      x="-371.23715"
      y="635.00073"
      transform="rotate(-90)"
      fill="#020202"
      stroke-width="0.00238169"
    />
    <rect
      height="20.000053"
      width="40.000595"
      id="rect3594"
      x="-379.08487"
      y="766.49127"
      transform="rotate(-90)"
      fill="#c6c6c5"
      stroke-width="0.00305543"
    />
    <rect
      height="20.000053"
      width="24.304813"
      id="rect3620"
      x="-371.23715"
      y="766.49127"
      transform="rotate(-90)"
      fill="#020202"
      stroke-width="0.00238169"
    />
    <rect
      y="356.02368"
      x="531.24213"
      height="20.001432"
      width="39.998428"
      id="rect3648"
      fill="#c6c6c5"
      stroke-width="0.00456342"
    />
    <rect
      y="356.02368"
      x="539.09119"
      height="20.001432"
      width="24.304808"
      id="rect3650"
      fill="#b7a283"
      stroke-width="0.00456342"
    />
    <rect
      height="20.000053"
      width="40.000595"
      id="rect3666"
      x="-739.31836"
      y="1109.8115"
      transform="rotate(-90)"
      fill="#999999"
      stroke="#999999"
      stroke-width="2.00864148"
    />
    <rect
      height="20.000053"
      width="24.304813"
      id="rect3692"
      x="-731.47388"
      y="1109.8115"
      transform="rotate(-90)"
      fill="#efefef"
      stroke-width="0.00238169"
    />
    <rect
      height="20.000053"
      width="40.000595"
      id="rect3720"
      x="-379.08487"
      y="716.12476"
      transform="rotate(-90)"
      fill="#c6c6c5"
      stroke-width="0.00305543"
    />
    <rect
      height="20.000053"
      width="24.304813"
      id="rect3746"
      x="-371.23715"
      y="716.12476"
      transform="rotate(-90)"
      fill="#b7a283"
      stroke-width="0.00238169"
    />
    <rect
      height="20.000053"
      width="40.000595"
      id="rect3774"
      x="-380.8172"
      y="312.07446"
      transform="rotate(-90)"
      fill="#c6c6c5"
      stroke-width="0.00305543"
    />
    <rect
      height="20.000053"
      width="24.304813"
      id="rect3800"
      x="-372.96948"
      y="312.07446"
      transform="rotate(-90)"
      fill="#b7a283"
      stroke-width="0.00238169"
    />
    <rect
      height="20.000053"
      width="40.000595"
      id="rect3828"
      x="-234.76292"
      y="1190.5476"
      transform="rotate(-90)"
      fill="#c6c6c5"
      stroke-width="0.00305543"
    />
    <rect
      height="20.000053"
      width="24.304813"
      id="rect3854"
      x="-226.9147"
      y="1190.5476"
      transform="rotate(-90)"
      fill="#b7a283"
      stroke-width="0.00238169"
    />
    <rect
      y="772.26617"
      x="1157.084"
      height="20.001432"
      width="39.998428"
      id="rect3996"
      fill="#c6c6c5"
      stroke-width="0.00456342"
    />
    <rect
      y="772.26617"
      x="1164.9331"
      height="20.001432"
      width="24.304808"
      id="rect3998"
      fill="#b7a283"
      stroke-width="0.00456342"
    />
    <rect
      height="20.000053"
      width="40.000595"
      id="rect4002"
      x="-788.80402"
      y="1053.3939"
      transform="rotate(-90)"
      fill="#c6c6c5"
      stroke-width="0.00305543"
    />
    <rect
      height="20.000053"
      width="24.304813"
      id="rect4028"
      x="-780.95496"
      y="1053.3939"
      transform="rotate(-90)"
      fill="#b7a283"
      stroke-width="0.00238169"
    />
    <rect
      height="20.000053"
      width="40.000595"
      id="rect4056"
      x="-703.73743"
      y="1053.3939"
      transform="rotate(-90)"
      fill="#c6c6c5"
      stroke-width="0.00305543"
    />
    <rect
      height="20.000053"
      width="24.304813"
      id="rect4082"
      x="-695.88837"
      y="1053.3939"
      transform="rotate(-90)"
      fill="#b7a283"
      stroke-width="0.00238169"
    />
    <rect
      y="164.18242"
      x="1959.1929"
      height="20.001432"
      width="39.998428"
      id="rect4110"
      fill="#c6c6c5"
      stroke-width="0.00456342"
    />
    <rect
      y="164.18242"
      x="1967.042"
      height="20.001432"
      width="24.304808"
      id="rect4112"
      fill="#b7a283"
      stroke-width="0.00456342"
    />
    <rect
      y="609.49841"
      x="392.35422"
      height="20.001432"
      width="39.998428"
      id="rect4116"
      fill="#c6c6c5"
      stroke-width="0.00456342"
    />
    <rect
      y="609.49841"
      x="400.20334"
      height="20.001432"
      width="24.304808"
      id="rect4118"
      fill="#b7a283"
      stroke-width="0.00456342"
    />
    <rect
      height="20.000053"
      width="40.000595"
      id="rect4122"
      x="-654.25177"
      y="1109.8115"
      transform="rotate(-90)"
      fill="#999999"
      stroke="#999999"
      stroke-width="2.00864148"
    />
    <rect
      height="20.000053"
      width="24.304813"
      id="rect4148"
      x="-646.40729"
      y="1109.8115"
      transform="rotate(-90)"
      fill="#efefef"
      stroke-width="0.00238169"
    />
    <rect
      height="20.000053"
      width="40.000595"
      id="rect4176"
      x="-750.61279"
      y="345.05844"
      transform="rotate(-90)"
      fill="#c6c6c5"
      stroke-width="0.00305543"
    />
    <rect
      height="20.000053"
      width="24.304813"
      id="rect4202"
      x="-742.76373"
      y="345.05844"
      transform="rotate(-90)"
      fill="#b7a283"
      stroke-width="0.00238169"
    />
    <rect
      y="349.29721"
      x="382.68887"
      height="29.999868"
      width="59.999924"
      id="rect4230"
      fill="#c6c6c5"
      stroke-width="0.00456342"
    />
    <rect
      y="349.29721"
      x="394.45798"
      height="29.999868"
      width="36.457211"
      id="rect4232"
      fill="#020202"
      stroke-width="0.00456342"
    />
    <rect
      height="29.164856"
      width="54.833954"
      id="rect4236"
      x="-896.46857"
      y="273.22009"
      transform="rotate(-90)"
      fill="#efefef"
      stroke="#b7b7b7"
      stroke-width="0.1377947"
    />
    <rect
      height="29.164856"
      width="12.348592"
      id="rect4262"
      x="-853.96497"
      y="273.22009"
      transform="rotate(-90)"
      fill="#999999"
      stroke-width="0.00456342"
    />
    <rect
      height="29.183109"
      width="12.348592"
      id="rect4288"
      x="-896.46399"
      y="273.2041"
      transform="rotate(-90)"
      fill="#999999"
      stroke-width="0.00456342"
    />
    <ellipse
      cx="287.80161"
      cy="869.05157"
      id="circle4314"
      rx="4.339818"
      ry="4.3398046"
      fill="#d2e28b"
      stroke-width="0.00456342"
    />
    <rect
      height="29.164856"
      width="54.833954"
      id="rect4318"
      x="-783.83441"
      y="273.22009"
      transform="rotate(-90)"
      fill="#efefef"
      stroke="#b7b7b7"
      stroke-width="0.1377947"
    />
    <rect
      height="29.164856"
      width="12.348592"
      id="rect4344"
      x="-741.33081"
      y="273.22009"
      transform="rotate(-90)"
      fill="#999999"
      stroke-width="0.00456342"
    />
    <rect
      height="29.183109"
      width="12.348592"
      id="rect4370"
      x="-783.8299"
      y="273.2041"
      transform="rotate(-90)"
      fill="#999999"
      stroke-width="0.00456342"
    />
    <ellipse
      cx="287.80161"
      cy="756.41748"
      id="circle4396"
      rx="4.339818"
      ry="4.3398046"
      fill="#f6afce"
      stroke-width="0.00456342"
    />
    <rect
      y="864.24176"
      x="906.70258"
      height="55.107758"
      gorn="0.1.1.1"
      width="55.117058"
      id="Rectangle_x0020_"
      fill="none"
      stroke="#bdbfc1"
      stroke-width="11.8109951"
    />
    <ellipse
      cx="934.25647"
      gorn="0.1.1.2"
      cy="891.79108"
      id="connector0pin"
      rx="27.558529"
      ry="27.558443"
      fill="none"
      stroke="#bdbfc1"
      stroke-width="11.8109951"
    />
    <ellipse
      cx="1034.2822"
      gorn="0.1.1.3"
      cy="891.79108"
      id="connector1pin"
      rx="27.558529"
      ry="27.558443"
      fill="none"
      stroke="#bdbfc1"
      stroke-width="11.8109951"
    />
    <ellipse
      cx="1134.3033"
      gorn="0.1.1.4"
      cy="891.79108"
      id="connector2pin"
      rx="27.558529"
      ry="27.558443"
      fill="none"
      stroke="#bdbfc1"
      stroke-width="11.8109951"
    />
    <ellipse
      cx="1234.3291"
      gorn="0.1.1.5"
      cy="891.79108"
      id="connector3pin"
      rx="27.558529"
      ry="27.558443"
      fill="none"
      stroke="#bdbfc1"
      stroke-width="11.8109951"
    />
    <ellipse
      cx="1334.3503"
      gorn="0.1.1.6"
      cy="891.79108"
      id="connector4pin"
      rx="27.558529"
      ry="27.558443"
      fill="none"
      stroke="#bdbfc1"
      stroke-width="11.8109951"
    />
    <ellipse
      cx="1434.376"
      gorn="0.1.1.7"
      cy="891.79108"
      id="connector5pin"
      rx="27.558529"
      ry="27.558443"
      fill="none"
      stroke="#bdbfc1"
      stroke-width="11.8109951"
    />
    <ellipse
      cx="1534.3972"
      gorn="0.1.1.8"
      cy="891.79108"
      id="connector6pin"
      rx="27.558529"
      ry="27.558443"
      fill="none"
      stroke="#bdbfc1"
      stroke-width="11.8109951"
    />
    <ellipse
      cx="1634.4229"
      gorn="0.1.1.9"
      cy="891.79108"
      id="connector7pin"
      rx="27.558529"
      ry="27.558443"
      fill="none"
      stroke="#bdbfc1"
      stroke-width="11.8109951"
    />
    <ellipse
      cx="1734.4441"
      gorn="0.1.1.10"
      cy="891.79108"
      id="connector8pin"
      rx="27.558529"
      ry="27.558443"
      fill="none"
      stroke="#bdbfc1"
      stroke-width="11.8109951"
    />
    <ellipse
      cx="1834.4698"
      gorn="0.1.1.11"
      cy="891.79108"
      id="connector9pin"
      rx="27.558529"
      ry="27.558443"
      fill="none"
      stroke="#bdbfc1"
      stroke-width="11.8109951"
    />
    <ellipse
      cx="1934.4681"
      gorn="0.1.1.12"
      cy="891.79108"
      id="connector10pin"
      rx="27.558529"
      ry="27.558443"
      fill="none"
      stroke="#bdbfc1"
      stroke-width="11.8109951"
    />
    <ellipse
      cx="2034.4712"
      gorn="0.1.1.13"
      cy="891.79108"
      id="connector11pin"
      rx="27.558529"
      ry="27.558443"
      fill="none"
      stroke="#bdbfc1"
      stroke-width="11.8109951"
    />
    <ellipse
      cx="2134.4695"
      gorn="0.1.1.14"
      cy="891.79108"
      id="connector12pin"
      rx="27.558529"
      ry="27.558443"
      fill="none"
      stroke="#bdbfc1"
      stroke-width="11.8109951"
    />
    <ellipse
      cx="2234.4678"
      gorn="0.1.1.15"
      cy="891.79108"
      id="connector13pin"
      rx="27.558529"
      ry="27.558443"
      fill="none"
      stroke="#bdbfc1"
      stroke-width="11.8109951"
    />
    <rect
      y="64.248276"
      x="2206.9094"
      height="55.107758"
      gorn="0.1.1.16"
      width="55.117058"
      id="Rectangle_x0020__0"
      fill="none"
      stroke="#bdbfc1"
      stroke-width="11.8109951"
    />
    <ellipse
      cx="2234.4678"
      gorn="0.1.1.17"
      cy="91.79303"
      id="connector14pin"
      rx="27.558529"
      ry="27.558443"
      fill="none"
      stroke="#bdbfc1"
      stroke-width="11.8109951"
    />
    <ellipse
      cx="2134.4465"
      gorn="0.1.1.18"
      cy="91.79303"
      id="connector15pin"
      rx="27.558529"
      ry="27.558443"
      fill="none"
      stroke="#bdbfc1"
      stroke-width="11.8109951"
    />
    <ellipse
      cx="2034.421"
      gorn="0.1.1.19"
      cy="91.79303"
      id="connector16pin"
      rx="27.558529"
      ry="27.558443"
      fill="none"
      stroke="#bdbfc1"
      stroke-width="11.8109951"
    />
    <ellipse
      cx="1934.3998"
      gorn="0.1.1.20"
      cy="91.79303"
      id="connector17pin"
      rx="27.558529"
      ry="27.558443"
      fill="none"
      stroke="#bdbfc1"
      stroke-width="11.8109951"
    />
    <ellipse
      cx="1834.374"
      gorn="0.1.1.21"
      cy="91.79303"
      id="connector18pin"
      rx="27.558529"
      ry="27.558443"
      fill="none"
      stroke="#bdbfc1"
      stroke-width="11.8109951"
    />
    <ellipse
      cx="1734.3529"
      gorn="0.1.1.22"
      cy="91.79303"
      id="connector19pin"
      rx="27.558529"
      ry="27.558443"
      fill="none"
      stroke="#bdbfc1"
      stroke-width="11.8109951"
    />
    <ellipse
      cx="1634.327"
      gorn="0.1.1.23"
      cy="91.79303"
      id="connector20pin"
      rx="27.558529"
      ry="27.558443"
      fill="none"
      stroke="#bdbfc1"
      stroke-width="11.8109951"
    />
    <ellipse
      cx="1534.3059"
      gorn="0.1.1.24"
      cy="91.79303"
      id="connector21pin"
      rx="27.558529"
      ry="27.558443"
      fill="none"
      stroke="#bdbfc1"
      stroke-width="11.8109951"
    />
    <ellipse
      cx="1434.2802"
      gorn="0.1.1.25"
      cy="91.79303"
      id="connector22pin"
      rx="27.558529"
      ry="27.558443"
      fill="none"
      stroke="#bdbfc1"
      stroke-width="11.8109951"
    />
    <ellipse
      cx="1334.259"
      gorn="0.1.1.26"
      cy="91.79303"
      id="connector23pin"
      rx="27.558529"
      ry="27.558443"
      fill="none"
      stroke="#bdbfc1"
      stroke-width="11.8109951"
    />
    <ellipse
      cx="1234.2561"
      gorn="0.1.1.27"
      cy="91.79303"
      id="connector24pin"
      rx="27.558529"
      ry="27.558443"
      fill="none"
      stroke="#bdbfc1"
      stroke-width="11.8109951"
    />
    <ellipse
      cx="1134.2577"
      gorn="0.1.1.28"
      cy="91.79303"
      id="connector25pin"
      rx="27.558529"
      ry="27.558443"
      fill="none"
      stroke="#bdbfc1"
      stroke-width="11.8109951"
    />
    <ellipse
      cx="1034.2594"
      gorn="0.1.1.29"
      cy="91.79303"
      id="connector26pin"
      rx="27.558529"
      ry="27.558443"
      fill="none"
      stroke="#bdbfc1"
      stroke-width="11.8109951"
    />
    <ellipse
      cx="934.25647"
      gorn="0.1.1.30"
      cy="91.79303"
      id="connector27pin"
      rx="27.558529"
      ry="27.558443"
      fill="none"
      stroke="#bdbfc1"
      stroke-width="11.8109951"
    />
    <polygon
      id="polygon906"
      points="150418,133697 150418,164054 155220,164054 155220,133697 "
      transform="matrix(-0.00456342,0,0,-0.00161451,1079.9132,422.27608)"
      fill="#b7b7b7"
      stroke-width="1.68122888"
    />
    <polygon
      transform="matrix(-0.00456342,0,0,-0.00162767,1121.4686,424.83508)"
      points="155220,133697 150418,133697 150418,164054 155220,164054 "
      id="polygon836"
      fill="#b7b7b7"
      stroke-width="1.67441761"
    />
    <polygon
      transform="matrix(-0.00456342,0,0,-0.00157502,1115.475,418.59509)"
      points="130396,133697 130396,164054 135191,164054 135191,133697 "
      id="polygon838"
      fill="#b7b7b7"
      stroke-width="1.70217323"
    />
    <rect
      id="rect840"
      width="313.229"
      height="137.08846"
      x="-624.90863"
      y="-162.64952"
      transform="scale(-1)"
      fill="#ad9e73"
      stroke-width="0.00456344"
    />
    <polygon
      id="polygon904"
      points="130396,164054 135191,164054 135191,133697 130396,133697 "
      transform="matrix(-0.00456342,0,0,-0.00169348,1158.2292,435.63189)"
      fill="#b7b7b7"
      stroke-width="1.641559"
    />
    <polygon
      transform="matrix(-0.00456342,0,0,-0.00314135,1121.4686,658.77539)"
      id="polygon842"
      points="163156,157941 122542,157941 122542,167348 127998,167348 127998,170171 158082,170171 158082,167348 163156,167348 "
      fill="#c2b990"
      stroke-width="1.20528269"
    />
    <rect
      id="rect844"
      width="236.01129"
      height="25.369534"
      x="-586.29742"
      y="-25.55529"
      transform="scale(-1)"
      fill="#f1f3e6"
      stroke-width="0.00456344"
    />
    <polygon
      transform="matrix(-0.00456342,0,0,-0.00314135,1121.4686,658.77539)"
      enable-background="new    "
      points="158082,170188 127998,170188 127998,167358 122542,167358 122542,175368 127998,175368 158082,175368 163156,175368 163156,167358 158082,167358 "
      id="polygon846"
      fill="#a0916b"
      fill-opacity="0.50196078"
      stroke-width="1.20528269"
    />
    <polygon
      transform="matrix(-0.00456342,0,0,-0.00314135,1121.4686,658.77539)"
      id="polygon848"
      points="122537,194331 163162,194331 163161,179757 122537,179757 "
      enable-background="new    "
      fill="#ffffff"
      fill-opacity="0.10196102"
      stroke-width="1.20528269"
    />
    <polygon
      transform="matrix(-0.00456342,0,0,-0.00314135,1121.4686,658.77539)"
      id="polygon850"
      points="122533,200212 163159,200212 163159,185638 122533,185638 "
      enable-background="new    "
      fill="#ffffff"
      fill-opacity="0.10196102"
      stroke-width="1.20528269"
    />
    <polygon
      transform="matrix(-0.00456342,0,0,-0.00314135,1121.4686,658.77539)"
      points="177451,157941 177451,144257 168992,144257 168992,157941 "
      id="polygon852"
      fill="#f1f3e6"
      stroke-width="1.20528269"
    />
    <polygon
      transform="matrix(-0.00456342,0,0,-0.00314135,1121.4686,658.77539)"
      points="117277,157941 117277,144257 108813,144257 108813,157941 "
      id="polygon854"
      fill="#f1f3e6"
      stroke-width="1.20528269"
    />
    <polygon
      id="polygon902"
      points="150418,133697 150418,164054 155220,164054 155220,133697 "
      transform="matrix(-0.00456342,0,0,-0.00171981,1163.0241,437.55298)"
      fill="#b7b7b7"
      stroke-width="1.62894666"
    />
    <polygon
      transform="matrix(-0.00456342,0,0,-0.00314135,1121.4686,658.77539)"
      points="122542,192918 122542,157941 108813,157941 108813,201572 177451,201572 177451,157941 163156,157941 163156,192918 154699,192918 154699,157941 131008,157941 131008,192918 "
      id="polygon856"
      fill="#f1f3e6"
      stroke-width="1.20528269"
    />
    <polygon
      transform="matrix(-0.00456342,0,0,-0.00314135,1121.4686,658.77539)"
      id="polygon858"
      points="108814,157939 117273,157939 117273,157052 108814,157052 "
      enable-background="new    "
      fill="#c2b990"
      fill-opacity="0.4"
      stroke-width="1.20528269"
    />
    <polygon
      transform="matrix(-0.00456342,0,0,-0.00314135,1121.4686,658.77539)"
      id="polygon860"
      points="168991,157943 177450,157943 177450,157051 168991,157051 "
      enable-background="new    "
      fill="#c2b990"
      fill-opacity="0.4"
      stroke-width="1.20528269"
    />
    <polygon
      transform="matrix(-0.00456342,0,0,-0.00314135,1121.4686,658.77539)"
      id="polygon862"
      points="154700,209652 163159,209652 163159,201573 154700,201573 "
      enable-background="new    "
      fill="#ad9e73"
      fill-opacity="0.4"
      stroke-width="1.20528269"
    />
    <polygon
      transform="matrix(-0.00456342,0,0,-0.00314135,1121.4686,658.77539)"
      id="polygon864"
      points="122541,209657 131005,209657 131005,201578 122541,201578 "
      enable-background="new    "
      fill="#ad9e73"
      fill-opacity="0.4"
      stroke-width="1.20528269"
    />
    <rect
      id="connector30pin"
      width="11.000004"
      height="14.506024"
      x="376.6329"
      y="177.52937"
      fill="none"
      stroke-width="0"
    />
    <rect
      y="177.52937"
      x="418.6329"
      height="14.506024"
      width="11.000004"
      id="connector31pin"
      fill="none"
      stroke-width="0"
    />
    <rect
      id="connector32pin"
      width="11.000004"
      height="14.506024"
      x="460.6329"
      y="177.52937"
      fill="none"
      stroke-width="0"
    />
    <rect
      y="177.52937"
      x="503.6329"
      height="14.506024"
      width="11.000004"
      id="connector33pin"
      fill="none"
      stroke-width="0"
    />
    <rect
      id="connector34pin"
      width="11.000004"
      height="14.506024"
      x="546.633"
      y="177.52937"
      fill="none"
      stroke-width="0"
    />
    <text
      id="text1145"
      x="373.2291"
      gorn="0.2.10"
      font-size="25"
      y="243.11401"
      font-family="OCRA"
      text-anchor="start"
      fill="#e6e6e6"
      stroke="none"
      stroke-width="10.00000286">1</text>
    <polygon
      points="572.819,633.389 572.819,616.194 541.625,616.194 541.625,571.139 572.819,571.139 572.819,0.527778 27.5417,0.527778 27.5417,287.875 0,287.875 0,584.458 42.9028,584.458 42.9028,387.236 416.625,387.236 416.625,633.389 "
      id="polygon8"
      transform="rotate(-90,1314.431,-513.41207)"
      fill="#404040"
    />
    <polygon
      points="416.625,633.389 543.847,633.389 543.583,635.417 416.597,635.417 "
      id="polygon10"
      transform="rotate(-90,1314.431,-513.41207)"
      fill="#808080"
    />
    <rect
      x="-773.47729"
      y="2215.0793"
      width="389.08313"
      height="3.5277812"
      id="rect12"
      transform="rotate(-90)"
      fill="#202020"
      stroke-width="1.00000036"
    />
    <rect
      x="-450.08789"
      y="2180.4124"
      width="31.51391"
      height="34.66671"
      id="rect14"
      transform="rotate(-90)"
      fill="#999999"
      stroke-width="1.00000036"
    />
    <rect
      x="-450.08789"
      y="2178.4124"
      width="31.51391"
      height="34.66671"
      id="rect16"
      transform="rotate(-90)"
      fill="#cccccc"
      stroke-width="1.00000036"
    />
    <rect
      x="-443.47681"
      y="2180.4124"
      width="17.013906"
      height="111.11103"
      id="rect18"
      transform="rotate(-90)"
      fill="#d6d6d6"
      stroke-width="1.00000036"
    />
    <rect
      x="-443.47681"
      y="2227.9404"
      width="17.013906"
      height="12.888904"
      id="rect20"
      transform="rotate(-90)"
      fill="#c2c2c2"
      stroke-width="1.00000036"
    />
    <rect
      x="-443.47681"
      y="2220.8013"
      width="17.013906"
      height="8.3888931"
      id="rect22"
      transform="rotate(-90)"
      fill="#adadad"
      stroke-width="1.00000036"
    />
    <rect
      x="-443.47681"
      y="2162.0513"
      width="17.013906"
      height="58.750019"
      id="rect24"
      transform="rotate(-90)"
      fill="#999999"
      stroke-width="1.00000036"
    />
    <rect
      x="-494.08789"
      y="2180.4124"
      width="31.51391"
      height="34.66671"
      id="rect26"
      transform="rotate(-90)"
      fill="#999999"
      stroke-width="1.00000036"
    />
    <rect
      x="-494.08789"
      y="2178.4124"
      width="31.51391"
      height="34.66671"
      id="rect28"
      transform="rotate(-90)"
      fill="#cccccc"
      stroke-width="1.00000036"
    />
    <rect
      x="-487.47681"
      y="2180.4124"
      width="17.013906"
      height="111.11103"
      id="rect30"
      transform="rotate(-90)"
      fill="#d6d6d6"
      stroke-width="1.00000036"
    />
    <rect
      x="-487.47681"
      y="2227.9404"
      width="17.013906"
      height="12.888904"
      id="rect32"
      transform="rotate(-90)"
      fill="#c2c2c2"
      stroke-width="1.00000036"
    />
    <rect
      x="-487.47681"
      y="2220.8013"
      width="17.013906"
      height="8.3888931"
      id="rect34"
      transform="rotate(-90)"
      fill="#adadad"
      stroke-width="1.00000036"
    />
    <rect
      x="-487.47681"
      y="2162.0513"
      width="17.013906"
      height="58.750019"
      id="rect36"
      transform="rotate(-90)"
      fill="#999999"
      stroke-width="1.00000036"
    />
    <rect
      x="-538.10181"
      y="2180.4124"
      width="31.472212"
      height="34.66671"
      id="rect38"
      transform="rotate(-90)"
      fill="#999999"
      stroke-width="1.00000036"
    />
    <rect
      x="-538.10181"
      y="2178.4124"
      width="31.472212"
      height="34.66671"
      id="rect40"
      transform="rotate(-90)"
      fill="#cccccc"
      stroke-width="1.00000036"
    />
    <rect
      x="-531.46289"
      y="2180.4124"
      width="17.000006"
      height="111.11103"
      id="rect42"
      transform="rotate(-90)"
      fill="#d6d6d6"
      stroke-width="1.00000036"
    />
    <rect
      x="-531.46289"
      y="2227.9404"
      width="17.000006"
      height="12.888904"
      id="rect44"
      transform="rotate(-90)"
      fill="#c2c2c2"
      stroke-width="1.00000036"
    />
    <rect
      x="-531.46289"
      y="2220.8013"
      width="17.000006"
      height="8.3888931"
      id="rect46"
      transform="rotate(-90)"
      fill="#adadad"
      stroke-width="1.00000036"
    />
    <rect
      x="-531.46289"
      y="2162.0513"
      width="17.000006"
      height="58.750019"
      id="rect48"
      transform="rotate(-90)"
      fill="#999999"
      stroke-width="1.00000036"
    />
    <rect
      x="-582.10205"
      y="2180.4124"
      width="31.486109"
      height="34.66671"
      id="rect50"
      transform="rotate(-90)"
      fill="#999999"
      stroke-width="1.00000036"
    />
    <rect
      x="-582.10205"
      y="2178.4124"
      width="31.486109"
      height="34.66671"
      id="rect52"
      transform="rotate(-90)"
      fill="#cccccc"
      stroke-width="1.00000036"
    />
    <rect
      x="-575.46289"
      y="2180.4124"
      width="17.000006"
      height="111.11103"
      id="rect54"
      transform="rotate(-90)"
      fill="#d6d6d6"
      stroke-width="1.00000036"
    />
    <rect
      x="-575.46289"
      y="2227.9404"
      width="17.000006"
      height="12.888904"
      id="rect56"
      transform="rotate(-90)"
      fill="#c2c2c2"
      stroke-width="1.00000036"
    />
    <rect
      x="-575.46289"
      y="2220.8013"
      width="17.000006"
      height="8.3888931"
      id="rect58"
      transform="rotate(-90)"
      fill="#adadad"
      stroke-width="1.00000036"
    />
    <rect
      x="-575.46289"
      y="2162.0513"
      width="17.000006"
      height="58.750019"
      id="rect60"
      transform="rotate(-90)"
      fill="#999999"
      stroke-width="1.00000036"
    />
    <rect
      x="-626.10205"
      y="2180.4124"
      width="31.486109"
      height="34.66671"
      id="rect62"
      transform="rotate(-90)"
      fill="#999999"
      stroke-width="1.00000036"
    />
    <rect
      x="-626.10205"
      y="2178.4124"
      width="31.486109"
      height="34.66671"
      id="rect64"
      transform="rotate(-90)"
      fill="#cccccc"
      stroke-width="1.00000036"
    />
    <rect
      x="-619.47705"
      y="2180.4124"
      width="17.000006"
      height="111.11103"
      id="rect66"
      transform="rotate(-90)"
      fill="#d6d6d6"
      stroke-width="1.00000036"
    />
    <rect
      x="-619.47705"
      y="2227.9404"
      width="17.000006"
      height="12.888904"
      id="rect68"
      transform="rotate(-90)"
      fill="#c2c2c2"
      stroke-width="1.00000036"
    />
    <rect
      x="-619.47705"
      y="2220.8013"
      width="17.000006"
      height="8.3888931"
      id="rect70"
      transform="rotate(-90)"
      fill="#adadad"
      stroke-width="1.00000036"
    />
    <rect
      x="-619.47705"
      y="2162.0513"
      width="17.000006"
      height="58.750019"
      id="rect72"
      transform="rotate(-90)"
      fill="#999999"
      stroke-width="1.00000036"
    />
    <rect
      x="-670.11597"
      y="2180.4124"
      width="31.486109"
      height="34.66671"
      id="rect74"
      transform="rotate(-90)"
      fill="#999999"
      stroke-width="1.00000036"
    />
    <rect
      x="-670.11597"
      y="2178.4124"
      width="31.486109"
      height="34.66671"
      id="rect76"
      transform="rotate(-90)"
      fill="#cccccc"
      stroke-width="1.00000036"
    />
    <rect
      x="-663.47705"
      y="2180.4124"
      width="17.000006"
      height="111.11103"
      id="rect78"
      transform="rotate(-90)"
      fill="#d6d6d6"
      stroke-width="1.00000036"
    />
    <rect
      x="-663.47705"
      y="2227.9404"
      width="17.000006"
      height="12.888904"
      id="rect80"
      transform="rotate(-90)"
      fill="#c2c2c2"
      stroke-width="1.00000036"
    />
    <rect
      x="-663.47705"
      y="2220.8013"
      width="17.000006"
      height="8.3888931"
      id="rect82"
      transform="rotate(-90)"
      fill="#adadad"
      stroke-width="1.00000036"
    />
    <rect
      x="-663.47705"
      y="2162.0513"
      width="17.000006"
      height="58.750019"
      id="rect84"
      transform="rotate(-90)"
      fill="#999999"
      stroke-width="1.00000036"
    />
    <rect
      x="-714.11621"
      y="2180.4124"
      width="31.486109"
      height="34.66671"
      id="rect86"
      transform="rotate(-90)"
      fill="#999999"
      stroke-width="1.00000036"
    />
    <rect
      x="-714.11621"
      y="2178.4124"
      width="31.486109"
      height="34.66671"
      id="rect88"
      transform="rotate(-90)"
      fill="#cccccc"
      stroke-width="1.00000036"
    />
    <rect
      x="-707.47729"
      y="2180.4124"
      width="17.000006"
      height="111.11103"
      id="rect90"
      transform="rotate(-90)"
      fill="#d6d6d6"
      stroke-width="1.00000036"
    />
    <rect
      x="-707.47729"
      y="2227.9404"
      width="17.000006"
      height="12.888904"
      id="rect92"
      transform="rotate(-90)"
      fill="#c2c2c2"
      stroke-width="1.00000036"
    />
    <rect
      x="-707.47729"
      y="2220.8013"
      width="17.000006"
      height="8.3888931"
      id="rect94"
      transform="rotate(-90)"
      fill="#adadad"
      stroke-width="1.00000036"
    />
    <rect
      x="-707.47729"
      y="2162.0513"
      width="17.000006"
      height="58.750019"
      id="rect96"
      transform="rotate(-90)"
      fill="#999999"
      stroke-width="1.00000036"
    />
    <rect
      x="-758.11621"
      y="2180.4124"
      width="31.486109"
      height="34.66671"
      id="rect98"
      transform="rotate(-90)"
      fill="#999999"
      stroke-width="1.00000036"
    />
    <rect
      x="-758.11621"
      y="2178.4124"
      width="31.486109"
      height="34.66671"
      id="rect100"
      transform="rotate(-90)"
      fill="#cccccc"
      stroke-width="1.00000036"
    />
    <rect
      x="-751.47729"
      y="2180.4124"
      width="17.000006"
      height="111.11103"
      id="rect102"
      transform="rotate(-90)"
      fill="#d6d6d6"
      stroke-width="1.00000036"
    />
    <rect
      x="-751.47729"
      y="2227.9404"
      width="17.000006"
      height="12.888904"
      id="rect104"
      transform="rotate(-90)"
      fill="#c2c2c2"
      stroke-width="1.00000036"
    />
    <rect
      x="-751.47729"
      y="2220.8013"
      width="17.000006"
      height="8.3888931"
      id="rect106"
      transform="rotate(-90)"
      fill="#adadad"
      stroke-width="1.00000036"
    />
    <rect
      x="-751.47729"
      y="2162.0513"
      width="17.000006"
      height="58.750019"
      id="rect108"
      transform="rotate(-90)"
      fill="#999999"
      stroke-width="1.00000036"
    />
    <path
      d="m 2403.4263,801.01899 v -34.09721 c 0,0 -20.3194,-12.5833 -20.3194,-30.8472 0,-18.25 0,-340.8891 0,-340.8891 0.5695,-22.1944 18.3889,-40.0418 40.6111,-40.5833 1.3334,0.1111 2.6806,0.1111 4.0417,0 14.5694,-1.1389 25.5556,-13.8334 24.4444,-28.4029 v -66.8333 h -29.7639 v 32.9861 h -23.4444 v -32.98609 h 13.0278 l 0.055,-31.22221 h -19.2917 v 64.2083 h 37.3333 v -32.98609 h 15.8889 v 66.83329 c 1.1111,14.5694 -9.875,27.2639 -24.4444,28.4029 -1.375,0.1111 -2.7083,0.1111 -4.0417,0 -22.2361,0.5416 -40.0556,18.3889 -40.6111,40.5833 0,0 0,322.6251 0,340.8891 0,18.2639 20.3194,30.8472 20.3194,30.8472 l 4e-4,34.09721 z"
      id="path110"
      fill="#808080"
      stroke-width="1.00000036"
    />
    <rect
      x="-262.86569"
      y="2449.4265"
      width="3.4722209"
      height="11.805604"
      id="rect112"
      transform="rotate(-90)"
      fill="#808080"
      stroke-width="1.00000036"
    />
    <rect
      y="2400.4683"
      width="2.6111109"
      height="11.833304"
      id="rect114"
      x="-801.01904"
      transform="rotate(-90)"
      fill="#808080"
      stroke-width="1.00000036"
    />
    <path
      d="m 2207.7602,758.11618 c -5.5,0 -10.0139,-4.5 -10.0139,-10 v -119.33309 c 0,-5.5 4.5001,-10 10.0139,-10 h -3.875 c -5.5,0 -10.0139,4.5 -10.0139,10 l -10e-5,119.3192 c 0,5.5 4.5,10 10.014,10 z"
      id="path116"
      fill="#808080"
      stroke-width="1.00000036"
    />
    <path
      d="m 2207.7602,584.28288 c -5.5,0 -10.0139,-4.5 -10.0139,-10 v -119.347 c 0,-5.5 4.5001,-10.0278 10.0139,-10.0278 h -3.875 c -5.5,0 -10.0139,4.5 -10.0139,10.0278 v 119.347 c 0,5.5 4.5,10 10.0139,10 z"
      id="path118"
      fill="#808080"
      stroke-width="1.00000036"
    />
    <path
      d="m 1979.9122,330.57478 c -5.5,0 -10,-4.5 -10,-9.9861 v -92.3889 h 2.0278 v 92.3889 c 0,5.4861 4.5,9.9861 10,9.9861 z"
      id="path120"
      fill="#808080"
      stroke-width="1.00000036"
    />
    <rect
      y="2412.3015"
      width="42.916714"
      height="2.3055608"
      id="rect122"
      x="-801.01904"
      transform="rotate(-90)"
      fill="#808080"
      stroke-width="1.00000036"
    />
    <rect
      x="-261.37985"
      y="1971.9401"
      width="33.180611"
      height="288.41708"
      id="rect124"
      transform="rotate(-90)"
      fill="#333333"
      stroke-width="1.00000036"
    />
    <path
      d="m 1969.9122,320.58778 v -92.3889 l -141.5413,9e-4 v 39.16671 l 5.7222,-7e-4 c 3.75,0 6.7917,3.04169 6.7917,6.7778 0,3.73609 -3.0417,6.77779 -6.7917,6.77779 l -5.7222,4e-4 v 169.6941 h 225.2081 c 5.5,0 10,4.5 10,10.0278 l 2e-4,0.65321 -222.7081,8.3334 v 32.84719 l 222.7081,8.3472 v 0.6666 c 0,5.50001 -4.5,10.00011 -10,10.00011 l -225.2083,-5e-4 v 153.5421 h 225.2501 c 5.5,0 10,4.5 10,10 l 2e-4,0.667 -222.7501,8.3333 -2e-4,32.8607 222.7501,8.3333 2e-4,0.6806 c 0,5.5 -4.5,10 -10,10 h -225.2503 v 55.1111 h 572.2082 v -34.09721 c 0,0 -20.3194,-12.5833 -20.3194,-30.8472 0,-18.25 0,-340.8891 0,-340.8891 0.5695,-22.1944 18.3889,-40.0417 40.6111,-40.5833 1.3333,0.1111 2.6806,0.1111 4.0417,0 14.5694,-1.1389 25.5556,-13.8333 24.4444,-28.4029 v -66.8333 h -29.7639 v 32.9861 h -23.4444 v -64.2083 h -135.7641 v 27.1806 l -149.8473,4e-4 v -2.917 c 0,-5.5 -4.5,-10.0278 -10,-10.0278 h -37.2917 c -5.5,0 -10,4.5 -10,10.0278 v 44.2639 c 0,5.5 4.5,9.9862 10,9.9862 h 37.2917 c 5.5,0 10,-4.4723 10,-9.9862 v -2.9583 h 149.8191 v 26.8889 c 0,5.4861 -4.5,9.9861 -9.9861,9.9861 l -270.458,-5e-4 c -5.486,-0.013 -10,-4.5131 -10,-10.0001 z m 309.9731,298.1811 c 5.5,0 10.0139,4.5 10.0139,10 l 1e-4,119.3334 c 0,5.5 -4.5,10 -10.0139,10 h -76.0557 c -5.4861,0 -9.9861,-4.5 -9.9861,-10 v -119.3331 c 0,-5.5 4.5,-10 9.9861,-10 z m 0,-173.861 c 5.5,0 10.0139,4.5 10.0139,10.0139 v 119.347 c 0,5.5 -4.5,10 -10.0139,10 h -76.0556 c -5.4862,0 -9.9862,-4.5 -9.9862,-10 v -119.347 c 0,-5.5 4.5,-10.01389 9.9862,-10.01389 z"
      id="path126"
      fill="#d1d1d1"
      stroke-width="1.00000036"
    />
    <path
      d="m 2240.8293,255.35178 h -130.2781 v -2.9305 c 0,-5.5 -4.5,-9.9862 -10,-9.9862 l -37.291,7e-4 c -5.5,0 -10,4.4722 -10,9.9861 v 44.25 c 0,5.5 4.5,10.0278 10,10.0278 h 37.2917 c 5.5,0 10,-4.5 10,-10.0278 v -2.9305 h 130.2781"
      id="path128"
      fill="#dadada"
      stroke-width="1.00000036"
    />
    <path
      d="m 2162.0512,255.35178 h -51.5 v -2.9305 c 0,-5.5 -4.5,-9.9862 -10,-9.9862 l -37.291,7e-4 c -5.5,0 -10,4.4722 -10,9.9861 v 44.25 c 0,5.5 4.5,10.0278 10,10.0278 h 37.2917 c 5.5,0 10,-4.5 10,-10.0278 v -2.9305 h 51.5"
      id="path130"
      fill="#e3e3e3"
      stroke-width="1.00000036"
    />
    <rect
      x="-259.39377"
      y="2444.0374"
      width="31.194412"
      height="19.263906"
      id="rect132"
      transform="rotate(-90)"
      fill="#af7418"
      stroke-width="1.00000036"
    />
    <rect
      x="-259.39377"
      y="2431.4963"
      width="31.194412"
      height="29.736109"
      id="rect134"
      transform="rotate(-90)"
      fill="#f7bd13"
      stroke-width="1.00000036"
    />
    <rect
      y="373.5687"
      x="1361.3651"
      height="303.67429"
      width="319.6572"
      id="rect830"
      fill="#666666"
      stroke="#808080"
      stroke-width="10.41666985"
    />
    <text
      y="479.35666"
      font-size="50"
      gorn="0.2.10"
      x="983.34985"
      id="label"
      font-family="OCRA"
      text-anchor="start"
      fill="#e6e6e6"
      stroke="none"
      stroke-width="10.00000286">MKR ZERO</text>
  </g>
</svg>
