<?xml version='1.0' encoding='UTF-8' standalone='no'?>
<!-- Created with Fritzing (http://www.fritzing.org/) -->
<svg xmlns="http://www.w3.org/2000/svg" version="1.2" baseProfile="tiny" height="0.8in" viewBox="0 0 72 57.6" width="1in" y="0in"  x="0in">
    <desc>
        <referenceFile>INA219 Rev C_pcb.svg</referenceFile>
    </desc>
    <desc >Fritzing footprint generated by brd2svg</desc>
    <g id="silkscreen"  gorn="0.1">
        <path stroke="white" d="M0.288,7.416A6.912,6.912,0,0,1,7.4304,0.288L64.5696,0.288A6.912,6.912,0,0,1,71.712,7.416L71.712,50.184A6.912,6.912,0,0,1,64.5696,57.312L7.4304,57.312A6.912,6.912,0,0,1,0.288,50.184L0.288,7.416"  stroke-width="0.576" fill="none"/>
        <g >
            <title >element:CONN3</title>
            <g >
                <title >package:JST_SH4</title>
                <line stroke="white" x2="58.5241" y2="37.3039" x1="65.8942"  stroke-linecap="round" y1="37.3039" stroke-width="0.432"/>
                <line stroke="white" x2="58.5241" y2="34.1858" x1="58.5241"  stroke-linecap="round" y1="37.3039" stroke-width="0.432"/>
                <line stroke="white" x2="58.5241" y2="20.0126" x1="58.5241"  stroke-linecap="round" y1="23.4142" stroke-width="0.432"/>
                <line stroke="white" x2="65.8942" y2="20.0126" x1="58.5241"  stroke-linecap="round" y1="20.0126" stroke-width="0.432"/>
                <line stroke="white" x2="70.7131" y2="22.8473" x1="70.7131"  stroke-linecap="round" y1="34.7527" stroke-width="0.432"/>
            </g>
        </g>
        <g >
            <title >element:CONN4</title>
            <g >
                <title >package:JST_SH4</title>
                <line stroke="white" x2="13.4759" y2="20.2961" x1="6.10583"  stroke-linecap="round" y1="20.2961" stroke-width="0.432"/>
                <line stroke="white" x2="13.4759" y2="23.4142" x1="13.4759"  stroke-linecap="round" y1="20.2961" stroke-width="0.432"/>
                <line stroke="white" x2="13.4759" y2="37.5874" x1="13.4759"  stroke-linecap="round" y1="34.1858" stroke-width="0.432"/>
                <line stroke="white" x2="6.10583" y2="37.5874" x1="13.4759"  stroke-linecap="round" y1="37.5874" stroke-width="0.432"/>
                <line stroke="white" x2="1.28693" y2="34.7527" x1="1.28693"  stroke-linecap="round" y1="22.8473" stroke-width="0.432"/>
            </g>
        </g>
        <g >
            <title >element:J1</title>
            <g >
                <title >package:TERMBLOCK_1X2-3.5MM</title>
                <line stroke="white" x2="45.6378" y2="4.56378" x1="45.6378"  stroke-linecap="round" y1="20.4378" stroke-width="0.576"/>
                <line stroke="white" x2="45.6378" y2="0.595276" x1="45.6378"  stroke-linecap="round" y1="4.56378" stroke-width="0.576"/>
                <line stroke="white" x2="25.7953" y2="0.595276" x1="45.6378"  stroke-linecap="round" y1="0.595276" stroke-width="0.576"/>
                <line stroke="white" x2="25.7953" y2="4.56378" x1="25.7953"  stroke-linecap="round" y1="0.595276" stroke-width="0.576"/>
                <line stroke="white" x2="25.7953" y2="20.4378" x1="25.7953"  stroke-linecap="round" y1="4.56378" stroke-width="0.576"/>
                <line stroke="white" x2="45.6378" y2="20.4378" x1="25.7953"  stroke-linecap="round" y1="20.4378" stroke-width="0.576"/>
                <line stroke="white" x2="25.7953" y2="4.56378" x1="45.6378"  stroke-linecap="round" y1="4.56378" stroke-width="0.576"/>
            </g>
        </g>
        <g >
            <title >element:U$31</title>
            <g >
                <title >package:STEMMAQT</title>
            </g>
        </g>
        <g >
            <title >element:U$32</title>
            <g >
                <title >package:STEMMAQT</title>
            </g>
        </g>
    </g>
    <g id="copper1"  gorn="0.2">
        <g id="copper0"  gorn="0.2.0">
            <circle connectorname="P$1" r="4.26331" stroke="#F7BD13" cy="7.2" id="connector46pad" cx="64.8"  gorn="0.2.0.0" stroke-width="1.44" fill="none"/>
            <g transform="matrix(-1, 0, 0, -1, 115.348, 66.1039)" >
                <g >
                    <rect stroke="none" height="1.70078" id="connector9pad" width="4.3937" y="32.2016"  gorn="0.2.0.1.0.0" x="55.4769" stroke-width="0" fill="#F7BD13"/>
                </g>
            </g>
            <g transform="matrix(-1, 0, 0, -1, 115.348, 60.4346)" >
                <g >
                    <rect stroke="none" height="1.70078" id="connector10pad" width="4.3937" y="29.3669"  gorn="0.2.0.2.0.0" x="55.4769" stroke-width="0" fill="#F7BD13"/>
                </g>
            </g>
            <g transform="matrix(-1, 0, 0, -1, 115.348, 54.7654)" >
                <g >
                    <rect stroke="none" height="1.70078" id="connector11pad" width="4.3937" y="26.5323"  gorn="0.2.0.3.0.0" x="55.4769" stroke-width="0" fill="#F7BD13"/>
                </g>
            </g>
            <circle connectorname="VIN+" r="1.96866" stroke="#F7BD13" cy="50.4" id="connector32pad" cx="54"  gorn="0.2.0.4" stroke-width="1.10268" fill="none"/>
            <g transform="matrix(-1, 0, 0, -1, 115.348, 49.0961)" >
                <g >
                    <rect stroke="none" height="1.70078" id="connector12pad" width="4.3937" y="23.6976"  gorn="0.2.0.5.0.0" x="55.4769" stroke-width="0" fill="#F7BD13"/>
                </g>
            </g>
            <rect stroke="none" height="1.70078" id="connector15pad" width="4.3937" y="23.6976"  gorn="0.2.0.6" x="12.1295" stroke-width="0" fill="#F7BD13"/>
            <circle connectorname="P$1" r="4.26331" stroke="#F7BD13" cy="50.4" id="connector48pad" cx="64.8"  gorn="0.2.0.7" stroke-width="1.44" fill="none"/>
            <rect stroke="none" height="1.70078" id="connector16pad" width="4.3937" y="26.5323"  gorn="0.2.0.8" x="12.1295" stroke-width="0" fill="#F7BD13"/>
            <rect stroke="none" height="1.70078" id="connector17pad" width="4.3937" y="29.3669"  gorn="0.2.0.9" x="12.1295" stroke-width="0" fill="#F7BD13"/>
            <rect stroke="none" height="1.70078" id="connector18pad" width="4.3937" y="32.2016"  gorn="0.2.0.10" x="12.1295" stroke-width="0" fill="#F7BD13"/>
            <circle connectorname="P$1" r="4.26331" stroke="#F7BD13" cy="7.2" id="connector45pad" cx="7.2"  gorn="0.2.0.11" stroke-width="1.44" fill="none"/>
            <circle connectorname="VIN-" r="2.25666" stroke="#F7BD13" cy="10.8" id="connector25pad" cx="30.8976"  gorn="0.2.0.12" stroke-width="1.67868" fill="none"/>
            <circle connectorname="P$1" r="4.26331" stroke="#F7BD13" cy="50.4" id="connector47pad" cx="7.2"  gorn="0.2.0.13" stroke-width="1.44" fill="none"/>
            <circle connectorname="VIN+" r="2.25666" stroke="#F7BD13" cy="10.8" id="connector26pad" cx="40.8189"  gorn="0.2.0.14" stroke-width="1.67868" fill="none"/>
            <circle connectorname="VCC" r="1.96866" stroke="#F7BD13" cy="50.4" id="connector27pad" cx="18"  gorn="0.2.0.15" stroke-width="1.10268" fill="none"/>
            <circle connectorname="GND" r="1.96866" stroke="#F7BD13" cy="50.4" id="connector28pad" cx="25.2"  gorn="0.2.0.16" stroke-width="1.10268" fill="none"/>
            <circle connectorname="SCL" r="1.96866" stroke="#F7BD13" cy="50.4" id="connector29pad" cx="32.4"  gorn="0.2.0.17" stroke-width="1.10268" fill="none"/>
            <circle connectorname="SDA" r="1.96866" stroke="#F7BD13" cy="50.4" id="connector30pad" cx="39.6"  gorn="0.2.0.18" stroke-width="1.10268" fill="none"/>
            <circle connectorname="VIN-" r="1.96866" stroke="#F7BD13" cy="50.4" id="connector31pad" cx="46.8"  gorn="0.2.0.19" stroke-width="1.10268" fill="none"/>
        </g>
    </g>
</svg>
