<?xml version='1.0' encoding='utf-8'?>
<!-- Generator: Adobe Illustrator 25.4.1, SVG Export Plug-In . SVG Version: 6.00 Build 0)  -->
<svg xmlns="http://www.w3.org/2000/svg" version="1.1" height="1in" viewBox="0 0 64.8 72" xmlns:xml="http://www.w3.org/XML/1998/namespace" id="Layer_1" y="0px" width="0.9in"  enable-background="new 0 0 64.8 72" xml:space="preserve" gorn="0" x="0px">
    <desc>
        <referenceFile>INA219 Rev C_schematic.svg</referenceFile>
    </desc>
    <desc >Fritzing schematic generated by brd2svg</desc>
    <g id="schematic"  gorn="0.1">
        <rect stroke="#000000" height="43.2" stroke-linejoin="round" y="14.4" width="35.55"  stroke-linecap="round" x="14.4" fill="none" stroke-width="0.9"/>
        <g transform="matrix(1 0 0 1 26.0533 38.2203)" >
            <text font-size="2.8" font-family="'DroidSans'" id="label"  gorn="0.1.1.0">INA219</text>
        </g>
        <g transform="matrix(1 0 0 1 25.4515 33.3572)" >
            <text font-size="2.8" font-family="'DroidSans'" id="label_00000023966737611832026450000000267470782536479912_"  gorn="0.1.2.0">Adafruit</text>
        </g>
        <line stroke="#787878" x2="14.4" stroke-linejoin="round" y2="28.8" x1="0.35"  stroke-linecap="round" fill="none" stroke-width="0.7" y1="28.8"/>
        <rect height="0.7" id="connector12pin" y="28.45" width="14.4"  gorn="0.1.4" fill="none"/>
        <rect height="0.7" id="connector12terminal" y="28.45" width="0"  gorn="0.1.5" fill="none"/>
        <g transform="matrix(1 0 0 1 15.8 29.5)" >
            <text font-size="2.8" font-family="'DroidSans'" id="label12"  gorn="0.1.6.0" fill="#8C8C8C">SCL</text>
        </g>
        <line stroke="#787878" x2="64.45" stroke-linejoin="round" y2="28.8" x1="50.05"  stroke-linecap="round" fill="none" stroke-width="0.7" y1="28.8"/>
        <rect height="0.7" id="connector11pin" y="28.45" width="14.4"  gorn="0.1.8" x="50.4" fill="none"/>
        <rect height="0.7" id="connector11terminal" y="28.45" width="0"  gorn="0.1.9" x="64.8" fill="none"/>
        <g transform="matrix(1 0 0 1 42.6956 29.5)" >
            <g id="label11"  enable-background="new    " gorn="0.1.10.0">
                <text font-size="2.8" font-family="'DroidSans'" y="0"  x="0" fill="#8C8C8C">S</text>
                <text font-size="2.8" font-family="'DroidSans'" y="0"  x="1.8164" fill="#8C8C8C">D</text>
                <text font-size="2.8" font-family="'DroidSans'" y="0"  x="4.1768" fill="#8C8C8C">A</text>
            </g>
        </g>
        <line stroke="#787878" x2="21.6" stroke-linejoin="round" y2="14.4" x1="21.6"  stroke-linecap="round" fill="none" stroke-width="0.7" y1="0.35"/>
        <rect height="14.4" id="connector25pin" y="0" width="0.7"  gorn="0.1.12" x="21.25" fill="none"/>
        <polygon points="21.25,0 21.95,0 21.95,0 " id="connector25terminal"  gorn="0.1.13" fill="none"/>
        <g transform="matrix(1, 0, 0, 1, 23, 16)" >
            <g >
                <g transform="rotate(270)" >
                    <g >
                        <g transform="matrix(1 0 0 1 -6.851 0)" >
                            <text font-size="2.8" font-family="'DroidSans'" id="label25"  gorn="0.1.14.0.0.0.0.0" fill="#8C8C8C">VIN-</text>
                        </g>
                    </g>
                </g>
            </g>
        </g>
        <line stroke="#787878" x2="28.8" stroke-linejoin="round" y2="14.4" x1="28.8"  stroke-linecap="round" fill="none" stroke-width="0.7" y1="0.35"/>
        <rect height="14.4" id="connector26pin" y="0" width="0.7"  gorn="0.1.16" x="28.45" fill="none"/>
        <polygon points="28.45,0 29.15,0 29.15,0 " id="connector26terminal"  gorn="0.1.17" fill="none"/>
        <g transform="matrix(1, 0, 0, 1, 30.2, 16)" >
            <g >
                <g transform="rotate(270)" >
                    <g >
                        <g transform="matrix(1 0 0 1 -7.6528 0)" >
                            <text font-size="2.8" font-family="'DroidSans'" id="label26"  gorn="0.1.18.0.0.0.0.0" fill="#8C8C8C">VIN+</text>
                        </g>
                    </g>
                </g>
            </g>
        </g>
        <line stroke="#787878" x2="36" stroke-linejoin="round" y2="14.4" x1="36"  stroke-linecap="round" fill="none" stroke-width="0.7" y1="0.35"/>
        <rect height="14.4" id="connector10pin" y="0" width="0.7"  gorn="0.1.20" x="35.65" fill="none"/>
        <polygon points="35.65,0 36.35,0 36.35,0 " id="connector10terminal"  gorn="0.1.21" fill="none"/>
        <g transform="matrix(1, 0, 0, 1, 37.4, 16)" >
            <g >
                <g transform="rotate(270)" >
                    <g >
                        <g transform="matrix(1 0 0 1 -6.0688 0)" >
                            <g id="label10"  enable-background="new    " gorn="0.1.22.0.0.0.0.0">
                                <text font-size="2.8" font-family="'DroidSans'" y="0"  x="0" fill="#8C8C8C">VC</text>
                                <text font-size="2.8" font-family="'DroidSans'" y="0"  x="3.958" fill="#8C8C8C">C</text>
                            </g>
                        </g>
                    </g>
                </g>
            </g>
        </g>
        <line stroke="#787878" x2="28.8" stroke-linejoin="round" y2="71.65" x1="28.8"  stroke-linecap="round" fill="none" stroke-width="0.7" y1="57.6"/>
        <rect height="14.4" id="connector9pin" y="57.6" width="0.7"  gorn="0.1.24" x="28.45" fill="none"/>
        <polygon points="28.45,72 29.15,72 29.15,72 " id="connector9terminal"  gorn="0.1.25" fill="none"/>
        <g transform="matrix(1, 0, 0, 1, 30.2, 56)" >
            <g >
                <g transform="rotate(270)" >
                    <g >
                        <g transform="matrix(1 0 0 1 0.0005 0)" >
                            <text font-size="2.8" font-family="'DroidSans'" id="label9"  gorn="0.1.26.0.0.0.0.0" fill="#8C8C8C">GND</text>
                        </g>
                    </g>
                </g>
            </g>
        </g>
        <rect height="14.4" id="connector27pin" y="0" width="0.7"  gorn="0.1.27" x="35.65" fill="none"/>
        <polygon points="35.65,0 36.35,0 36.35,0 " id="connector27terminal"  gorn="0.1.28" fill="none"/>
        <rect height="14.4" id="connector16pin" y="0" width="0.7"  gorn="0.1.29" x="35.65" fill="none"/>
        <polygon points="35.65,0 36.35,0 36.35,0 " id="connector16terminal"  gorn="0.1.30" fill="none"/>
        <rect height="14.4" id="connector31pin" y="0" width="0.7"  gorn="0.1.31" x="21.25" fill="none"/>
        <polygon points="21.25,0 21.95,0 21.95,0 " id="connector31terminal"  gorn="0.1.32" fill="none"/>
        <rect height="14.4" id="connector32pin" y="0" width="0.7"  gorn="0.1.33" x="28.45" fill="none"/>
        <polygon points="28.45,0 29.15,0 29.15,0 " id="connector32terminal"  gorn="0.1.34" fill="none"/>
        <rect height="14.4" id="connector28pin" y="57.6" width="0.7"  gorn="0.1.35" x="28.45" fill="none"/>
        <polygon points="28.45,72 29.15,72 29.15,72 " id="connector28terminal"  gorn="0.1.36" fill="none"/>
        <rect height="14.4" id="connector15pin" y="57.6" width="0.7"  gorn="0.1.37" x="28.45" fill="none"/>
        <polygon points="28.45,72 29.15,72 29.15,72 " id="connector15terminal"  gorn="0.1.38" fill="none"/>
        <rect height="0.7" id="connector29pin" y="28.45" width="14.4"  gorn="0.1.39" fill="none"/>
        <rect height="0.7" id="connector29terminal" y="28.45" width="0"  gorn="0.1.40" fill="none"/>
        <rect height="0.7" id="connector18pin" y="28.45" width="14.4"  gorn="0.1.41" fill="none"/>
        <rect height="0.7" id="connector18terminal" y="28.45" width="0"  gorn="0.1.42" fill="none"/>
        <rect height="0.7" id="connector30pin" y="28.45" width="14.4"  gorn="0.1.43" x="50.4" fill="none"/>
        <rect height="0.7" id="connector30terminal" y="28.45" width="0"  gorn="0.1.44" x="64.8" fill="none"/>
        <rect height="0.7" id="connector17pin" y="28.45" width="14.4"  gorn="0.1.45" x="50.4" fill="none"/>
        <rect height="0.7" id="connector17terminal" y="28.45" width="0"  gorn="0.1.46" x="64.8" fill="none"/>
    </g>
</svg>
