<?xml version='1.0' encoding='UTF-8' standalone='no'?>
<!-- Created with Fritzing (http://www.fritzing.org/) -->
<svg xmlns="http://www.w3.org/2000/svg" width="1in" version="1.2"  baseProfile="tiny" height="1in" x="0in" y="0in" viewBox="0 0 72 72">
    <desc>
        <referenceFile>SparkFun_IMU_Breakout_ICM-20948_pcb.svg</referenceFile>
    </desc>
    <desc >Fritzing footprint generated by brd2svg</desc>
    <g id="silkscreen"  gorn="0.1">
        <path stroke-width="0.576" stroke="white"  d="M0.288,71.712L0.288,0.288L71.712,0.288L71.712,71.712L0.288,71.712M2.808,64.8a4.392,4.392,0,1,0,8.784,0,4.392,4.392,0,1,0,-8.784,0zM60.408,64.8a4.392,4.392,0,1,0,8.784,0,4.392,4.392,0,1,0,-8.784,0zM2.808,7.2a4.392,4.392,0,1,0,8.784,0,4.392,4.392,0,1,0,-8.784,0zM60.408,7.2a4.392,4.392,0,1,0,8.784,0,4.392,4.392,0,1,0,-8.784,0z" fill="none"/>
        <path stroke-width="0.72" stroke="white"  d="M4.896,24.984A2.16,2.16,0,1,0,2.736,22.824" fill="none"/>
        <line stroke-width="0.72" y1="22.824" y2="22.176" stroke="white" x1="2.736" x2="3.672"  stroke-linecap="round"/>
        <line stroke-width="0.72" y1="22.176" y2="21.6" stroke="white" x1="3.672" x2="2.376"  stroke-linecap="round"/>
        <line stroke-width="0.72" y1="21.6" y2="22.824" stroke="white" x1="2.376" x2="2.736"  stroke-linecap="round"/>
        <line stroke-width="0.36" y1="22.464" y2="22.464" stroke="white" x1="3.096" x2="2.736"  stroke-linecap="round"/>
        <line stroke-width="0.72" y1="22.176" y2="21.888" stroke="white" x1="3.024" x2="2.808"  stroke-linecap="round"/>
        <path stroke-width="0.72" stroke="white"  d="M5.29212,18.8572A2.16,2.16,0,1,0,5.19085,15.8041" fill="none"/>
        <line stroke-width="0.72" y1="15.8041" y2="15.9705" stroke="white" x1="5.19085" x2="6.31704"  stroke-linecap="round"/>
        <line stroke-width="0.72" y1="15.9705" y2="14.6645" stroke="white" x1="6.31704" x2="5.76431"  stroke-linecap="round"/>
        <line stroke-width="0.72" y1="14.6645" y2="15.8041" stroke="white" x1="5.76431" x2="5.19085"  stroke-linecap="round"/>
        <path stroke-width="0.72" stroke="white"  d="M12.2332,22.7879A2.16,2.16,0,1,0,9.18014,22.8892" fill="none"/>
        <line stroke-width="0.72" y1="22.8892" y2="21.7629" stroke="white" x1="9.18014" x2="9.34654"  stroke-linecap="round"/>
        <line stroke-width="0.72" y1="21.7629" y2="22.3157" stroke="white" x1="9.34654" x2="8.04046"  stroke-linecap="round"/>
        <line stroke-width="0.72" y1="22.3157" y2="22.8892" stroke="white" x1="8.04046" x2="9.18014"  stroke-linecap="round"/>
        <line stroke-width="0.72" y1="24.624" y2="23.544" stroke="white" x1="10.656" x2="11.376"  stroke-linecap="round"/>
        <line stroke-width="0.72" y1="23.544" y2="23.544" stroke="white" x1="11.376" x2="9.936"  stroke-linecap="round"/>
        <line stroke-width="0.72" y1="23.544" y2="24.624" stroke="white" x1="9.936" x2="10.656"  stroke-linecap="round"/>
        <line stroke-width="0.72" y1="17.424" y2="18.144" stroke="white" x1="3.456" x2="4.536"  stroke-linecap="round"/>
        <line stroke-width="0.72" y1="18.144" y2="16.704" stroke="white" x1="4.536" x2="4.536"  stroke-linecap="round"/>
        <line stroke-width="0.72" y1="16.704" y2="17.424" stroke="white" x1="4.536" x2="3.456"  stroke-linecap="round"/>
        <line stroke-width="0.72" y1="24.0004" y2="16.8004" stroke="white" x1="66.0954" x2="66.0954"  stroke-linecap="round"/>
        <line stroke-width="0.72" y1="24.0004" y2="24.0004" stroke="white" x1="66.0954" x2="58.8954"  stroke-linecap="round"/>
        <line stroke-width="0.72" y1="24.0004" y2="24.7204" stroke="white" x1="58.8954" x2="59.9754"  stroke-linecap="round"/>
        <line stroke-width="0.72" y1="24.7204" y2="23.2804" stroke="white" x1="59.9754" x2="59.9754"  stroke-linecap="round"/>
        <line stroke-width="0.72" y1="23.2804" y2="24.0004" stroke="white" x1="59.9754" x2="58.8954"  stroke-linecap="round"/>
        <line stroke-width="0.72" y1="16.8004" y2="17.8804" stroke="white" x1="66.0954" x2="65.3754"  stroke-linecap="round"/>
        <line stroke-width="0.72" y1="17.8804" y2="17.8804" stroke="white" x1="65.3754" x2="66.8154"  stroke-linecap="round"/>
        <line stroke-width="0.72" y1="17.8804" y2="16.8004" stroke="white" x1="66.8154" x2="66.0954"  stroke-linecap="round"/>
        <line stroke-width="0.72" y1="18.8163" y2="20.5443" stroke="white" x1="62.6394" x2="60.9114"  stroke-linecap="round"/>
        <line stroke-width="0.72" y1="18.8163" y2="20.5443" stroke="white" x1="60.9114" x2="62.7114"  stroke-linecap="round"/>
        <line stroke-width="0.72" y1="17.424" y2="18" stroke="white" x1="10.656" x2="10.656"  stroke-linecap="round"/>
        <line stroke-width="0.72" y1="20.592" y2="24.624" stroke="white" x1="10.656" x2="10.656"  stroke-linecap="round"/>
        <line stroke-width="0.72" y1="17.424" y2="17.424" stroke="white" x1="10.656" x2="10.08"  stroke-linecap="round"/>
        <line stroke-width="0.72" y1="17.424" y2="17.424" stroke="white" x1="3.528" x2="7.488"  stroke-linecap="round"/>
        <circle stroke-width="0.72" cx="18" cy="3.6" r="3.23439" stroke="white"  fill="none"/>
        <circle stroke-width="0.72" cx="18" cy="68.4" r="3.2655" stroke="white"  fill="none"/>
        <circle stroke-width="0.00566928" cx="4.896" cy="22.824" r="0.864" stroke="white"  fill="none"/>
        <circle stroke-width="0.504" cx="61.776" cy="19.656" r="2.16" stroke="white"  fill="none"/>
        <g >
            <title >element:J1</title>
            <g >
                <title >package:JST04_1MM_RA</title>
                <line stroke-width="0.576" y1="31.748" y2="40.252" stroke="white" x1="1.36063" x2="1.36063"  stroke-linecap="round"/>
                <line stroke-width="0.576" y1="27.4961" y2="27.4961" stroke="white" x1="8.73072" x2="13.4078"  stroke-linecap="round"/>
                <line stroke-width="0.576" y1="42.378" y2="44.5039" stroke="white" x1="13.4078" x2="13.4078"  stroke-linecap="round"/>
                <line stroke-width="0.576" y1="44.5039" y2="44.5039" stroke="white" x1="13.4078" x2="8.73072"  stroke-linecap="round"/>
                <line stroke-width="0.576" y1="27.4961" y2="29.622" stroke="white" x1="13.4078" x2="13.4078"  stroke-linecap="round"/>
                <circle stroke-width="0.576" cx="15.2504" cy="28.9134" r="0.288" stroke="white"  fill="none"/>
            </g>
        </g>
        <g >
            <title >element:J2</title>
            <g >
                <title >package:JST04_1MM_RA</title>
                <line stroke-width="0.576" y1="40.252" y2="31.748" stroke="white" x1="70.6393" x2="70.6393"  stroke-linecap="round"/>
                <line stroke-width="0.576" y1="44.5039" y2="44.5039" stroke="white" x1="63.2693" x2="58.5922"  stroke-linecap="round"/>
                <line stroke-width="0.576" y1="29.622" y2="27.4961" stroke="white" x1="58.5922" x2="58.5922"  stroke-linecap="round"/>
                <line stroke-width="0.576" y1="27.4961" y2="27.4961" stroke="white" x1="58.5922" x2="63.2693"  stroke-linecap="round"/>
                <line stroke-width="0.576" y1="44.5039" y2="42.378" stroke="white" x1="58.5922" x2="58.5922"  stroke-linecap="round"/>
                <circle stroke-width="0.576" cx="56.7496" cy="43.0866" r="0.288" stroke="white"  fill="none"/>
            </g>
        </g>
        <g >
            <title >element:J3</title>
            <g >
                <title >package:1X06_NO_SILK</title>
            </g>
        </g>
        <g >
            <title >element:J4</title>
            <g >
                <title >package:1X06_NO_SILK</title>
            </g>
        </g>
        <g >
            <title >element:LOGO1</title>
            <g >
                <title >package:SFE_LOGO_NAME_FLAME_.1</title>
            </g>
        </g>
        <g >
            <title >element:Q2</title>
            <g >
                <title >package:SOT-416FL</title>
                <line stroke-width="0.576" y1="49.6318" y2="50.6239" stroke="white" x1="56.0551" x2="56.0551"  stroke-linecap="round"/>
                <line stroke-width="0.576" y1="50.6239" y2="50.6239" stroke="white" x1="56.0551" x2="55.2047"  stroke-linecap="round"/>
                <line stroke-width="0.576" y1="50.6239" y2="50.6239" stroke="white" x1="52.7953" x2="51.9449"  stroke-linecap="round"/>
                <line stroke-width="0.576" y1="50.6239" y2="49.6318" stroke="white" x1="51.9449" x2="51.9449"  stroke-linecap="round"/>
                <line stroke-width="0.576" y1="48.6397" y2="48.6397" stroke="white" x1="54.2126" x2="53.7874"  stroke-linecap="round"/>
            </g>
        </g>
        <g >
            <title >element:Q4</title>
            <g >
                <title >package:SOT-416FL</title>
                <line stroke-width="0.576" y1="49.6318" y2="50.6239" stroke="white" x1="48.8551" x2="48.8551"  stroke-linecap="round"/>
                <line stroke-width="0.576" y1="50.6239" y2="50.6239" stroke="white" x1="48.8551" x2="48.0047"  stroke-linecap="round"/>
                <line stroke-width="0.576" y1="50.6239" y2="50.6239" stroke="white" x1="45.5953" x2="44.7449"  stroke-linecap="round"/>
                <line stroke-width="0.576" y1="50.6239" y2="49.6318" stroke="white" x1="44.7449" x2="44.7449"  stroke-linecap="round"/>
                <line stroke-width="0.576" y1="48.6397" y2="48.6397" stroke="white" x1="47.0126" x2="46.5874"  stroke-linecap="round"/>
            </g>
        </g>
        <g >
            <title >element:Q6</title>
            <g >
                <title >package:SOT-416FL</title>
                <line stroke-width="0.576" y1="49.6318" y2="50.6239" stroke="white" x1="41.6551" x2="41.6551"  stroke-linecap="round"/>
                <line stroke-width="0.576" y1="50.6239" y2="50.6239" stroke="white" x1="41.6551" x2="40.8047"  stroke-linecap="round"/>
                <line stroke-width="0.576" y1="50.6239" y2="50.6239" stroke="white" x1="38.3953" x2="37.5449"  stroke-linecap="round"/>
                <line stroke-width="0.576" y1="50.6239" y2="49.6318" stroke="white" x1="37.5449" x2="37.5449"  stroke-linecap="round"/>
                <line stroke-width="0.576" y1="48.6397" y2="48.6397" stroke="white" x1="39.8126" x2="39.3874"  stroke-linecap="round"/>
            </g>
        </g>
        <g >
            <title >element:Q8</title>
            <g >
                <title >package:SOT-416FL</title>
                <line stroke-width="0.576" y1="49.6318" y2="50.6239" stroke="white" x1="34.4551" x2="34.4551"  stroke-linecap="round"/>
                <line stroke-width="0.576" y1="50.6239" y2="50.6239" stroke="white" x1="34.4551" x2="33.6047"  stroke-linecap="round"/>
                <line stroke-width="0.576" y1="50.6239" y2="50.6239" stroke="white" x1="31.1953" x2="30.3449"  stroke-linecap="round"/>
                <line stroke-width="0.576" y1="50.6239" y2="49.6318" stroke="white" x1="30.3449" x2="30.3449"  stroke-linecap="round"/>
                <line stroke-width="0.576" y1="48.6397" y2="48.6397" stroke="white" x1="32.6126" x2="32.1874"  stroke-linecap="round"/>
            </g>
        </g>
        <g >
            <title >element:Q10</title>
            <g >
                <title >package:SOT-416FL</title>
                <line stroke-width="0.576" y1="22.3682" y2="21.3761" stroke="white" x1="37.5449" x2="37.5449"  stroke-linecap="round"/>
                <line stroke-width="0.576" y1="21.3761" y2="21.3761" stroke="white" x1="37.5449" x2="38.3953"  stroke-linecap="round"/>
                <line stroke-width="0.576" y1="21.3761" y2="21.3761" stroke="white" x1="40.8047" x2="41.6551"  stroke-linecap="round"/>
                <line stroke-width="0.576" y1="21.3761" y2="22.3682" stroke="white" x1="41.6551" x2="41.6551"  stroke-linecap="round"/>
                <line stroke-width="0.576" y1="23.3603" y2="23.3603" stroke="white" x1="39.3874" x2="39.8126"  stroke-linecap="round"/>
            </g>
        </g>
        <g >
            <title >element:Q12</title>
            <g >
                <title >package:SOT-416FL</title>
                <line stroke-width="0.576" y1="22.3682" y2="21.3761" stroke="white" x1="44.7449" x2="44.7449"  stroke-linecap="round"/>
                <line stroke-width="0.576" y1="21.3761" y2="21.3761" stroke="white" x1="44.7449" x2="45.5953"  stroke-linecap="round"/>
                <line stroke-width="0.576" y1="21.3761" y2="21.3761" stroke="white" x1="48.0047" x2="48.8551"  stroke-linecap="round"/>
                <line stroke-width="0.576" y1="21.3761" y2="22.3682" stroke="white" x1="48.8551" x2="48.8551"  stroke-linecap="round"/>
                <line stroke-width="0.576" y1="23.3603" y2="23.3603" stroke="white" x1="46.5874" x2="47.0126"  stroke-linecap="round"/>
            </g>
        </g>
        <g >
            <title >element:Q14</title>
            <g >
                <title >package:SOT-416FL</title>
                <line stroke-width="0.576" y1="22.3682" y2="21.3761" stroke="white" x1="30.3449" x2="30.3449"  stroke-linecap="round"/>
                <line stroke-width="0.576" y1="21.3761" y2="21.3761" stroke="white" x1="30.3449" x2="31.1953"  stroke-linecap="round"/>
                <line stroke-width="0.576" y1="21.3761" y2="21.3761" stroke="white" x1="33.6047" x2="34.4551"  stroke-linecap="round"/>
                <line stroke-width="0.576" y1="21.3761" y2="22.3682" stroke="white" x1="34.4551" x2="34.4551"  stroke-linecap="round"/>
                <line stroke-width="0.576" y1="23.3603" y2="23.3603" stroke="white" x1="32.1874" x2="32.6126"  stroke-linecap="round"/>
            </g>
        </g>
        <g >
            <title >element:Q16</title>
            <g >
                <title >package:SOT-416FL</title>
                <line stroke-width="0.576" y1="22.3682" y2="21.3761" stroke="white" x1="23.1449" x2="23.1449"  stroke-linecap="round"/>
                <line stroke-width="0.576" y1="21.3761" y2="21.3761" stroke="white" x1="23.1449" x2="23.9953"  stroke-linecap="round"/>
                <line stroke-width="0.576" y1="21.3761" y2="21.3761" stroke="white" x1="26.4047" x2="27.2551"  stroke-linecap="round"/>
                <line stroke-width="0.576" y1="21.3761" y2="22.3682" stroke="white" x1="27.2551" x2="27.2551"  stroke-linecap="round"/>
                <line stroke-width="0.576" y1="23.3603" y2="23.3603" stroke="white" x1="24.9874" x2="25.4126"  stroke-linecap="round"/>
            </g>
        </g>
    </g>
    <g id="copper1"  gorn="0.2">
        <g id="copper0"  gorn="0.2.0">
            <circle id="connector26pad" stroke-width="1.224" cx="18" cy="68.4" r="2.052" connectorname="GND" stroke="#F7BD13"  gorn="0.2.0.0" fill="none"/>
            <circle id="connector27pad" stroke-width="1.224" cx="25.2" cy="68.4" r="2.052" connectorname="VIN" stroke="#F7BD13"  gorn="0.2.0.1" fill="none"/>
            <circle id="connector28pad" stroke-width="1.224" cx="32.4" cy="68.4" r="2.052" connectorname="SDA/SDI_VIN" stroke="#F7BD13"  gorn="0.2.0.2" fill="none"/>
            <circle id="connector29pad" stroke-width="1.224" cx="39.6" cy="68.4" r="2.052" connectorname="SCL/SCLK_VIN" stroke="#F7BD13"  gorn="0.2.0.3" fill="none"/>
            <circle id="connector30pad" stroke-width="1.224" cx="46.8" cy="68.4" r="2.052" connectorname="AD0/SDO_VIN" stroke="#F7BD13"  gorn="0.2.0.4" fill="none"/>
            <circle id="connector31pad" stroke-width="1.224" cx="54" cy="68.4" r="2.052" connectorname="!CS!_VIN" stroke="#F7BD13"  gorn="0.2.0.5" fill="none"/>
            <circle id="connector32pad" stroke-width="1.224" cx="18" cy="3.6" r="2.052" connectorname="GND" stroke="#F7BD13"  gorn="0.2.0.6" fill="none"/>
            <circle id="connector33pad" stroke-width="1.224" cx="25.2" cy="3.6" r="2.052" connectorname="INT_VIN" stroke="#F7BD13"  gorn="0.2.0.7" fill="none"/>
            <circle id="connector34pad" stroke-width="1.224" cx="32.4" cy="3.6" r="2.052" connectorname="FSYNC_VIN" stroke="#F7BD13"  gorn="0.2.0.8" fill="none"/>
            <circle id="connector35pad" stroke-width="1.224" cx="39.6" cy="3.6" r="2.052" connectorname="AUX_DA_VIN" stroke="#F7BD13"  gorn="0.2.0.9" fill="none"/>
            <circle id="connector36pad" stroke-width="1.224" cx="46.8" cy="3.6" r="2.052" connectorname="AUX_CL_VIN" stroke="#F7BD13"  gorn="0.2.0.10" fill="none"/>
            <circle id="connector37pad" stroke-width="1.224" cx="54" cy="3.6" r="2.052" connectorname="VIN" stroke="#F7BD13"  gorn="0.2.0.11" fill="none"/>
        </g>
    </g>
</svg>
