<?xml version='1.0' encoding='utf-8'?>
<!-- Generator: Adobe Illustrator 25.4.1, SVG Export Plug-In . SVG Version: 6.00 Build 0)  -->
<svg xmlns="http://www.w3.org/2000/svg" version="1.1" height="0.8in" viewBox="0 0 77.8349 57.6" xmlns:xml="http://www.w3.org/XML/1998/namespace" id="Layer_1" y="0px" width="1.08104in"  enable-background="new 0 0 77.8349 57.6" xml:space="preserve" gorn="0" x="0px">
    <desc>
        <referenceFile>INA219 Rev C_breadboard.svg</referenceFile>
    </desc>
    <desc >Fritzing breadboard generated by brd2svg</desc>
    <g id="icon"  gorn="0.1">
        <path d="M3.0016,7.2c0-3.9765,3.2235-7.2,7.2-7.2c0,0,0,0,0,0h57.6c3.9764,0,7.2,3.2236,7.2,7.2v43.2c0,3.9764-3.2235,7.2-7.2,7.2h-57.6c-3.9764,0-7.2-3.2235-7.2-7.2V7.2 M32.4819,10.8c0,0.7828,0.6346,1.4173,1.4173,1.4173c0.7828,0,1.4173-0.6346,1.4173-1.4173c0-0.7828-0.6346-1.4173-1.4173-1.4173C33.1165,9.3827,32.4819,10.0172,32.4819,10.8z M42.4032,10.8c0,0.7828,0.6346,1.4173,1.4173,1.4173c0.7828,0,1.4173-0.6346,1.4173-1.4173c0-0.7828-0.6346-1.4173-1.4173-1.4173S42.4032,10.0172,42.4032,10.8z M19.5843,50.4c0,0.7828,0.6346,1.4173,1.4173,1.4173c0.7828,0,1.4173-0.6346,1.4173-1.4173s-0.6346-1.4173-1.4173-1.4173C20.2189,48.9827,19.5843,49.6172,19.5843,50.4L19.5843,50.4z M26.7843,50.4c0,0.7828,0.6346,1.4173,1.4173,1.4173c0.7828,0,1.4173-0.6346,1.4173-1.4173s-0.6346-1.4173-1.4173-1.4173C27.4189,48.9827,26.7843,49.6172,26.7843,50.4L26.7843,50.4z M33.9843,50.4c0,0.7828,0.6346,1.4173,1.4173,1.4173S36.819,51.1828,36.819,50.4s-0.6346-1.4173-1.4173-1.4173C34.6189,48.9827,33.9843,49.6172,33.9843,50.4C33.9843,50.4,33.9843,50.4,33.9843,50.4z M41.1843,50.4c0,0.7828,0.6346,1.4173,1.4173,1.4173S44.019,51.1828,44.019,50.4l0,0c0-0.7828-0.6346-1.4173-1.4173-1.4173S41.1843,49.6172,41.1843,50.4z M48.3843,50.4c0,0.7828,0.6346,1.4173,1.4173,1.4173c0.7828,0,1.4173-0.6346,1.4173-1.4173s-0.6346-1.4173-1.4173-1.4173S48.3843,49.6172,48.3843,50.4z M55.5843,50.4c0,0.7828,0.6346,1.4173,1.4173,1.4173c0.7828,0,1.4173-0.6346,1.4173-1.4173s-0.6346-1.4173-1.4173-1.4173S55.5843,49.6172,55.5843,50.4z M6.6583,7.2c-0.0033,1.9569,1.5804,3.546,3.5373,3.5493s3.546-1.5804,3.5493-3.5373c0-0.004,0-0.008,0-0.012c0.0033-1.9569-1.5804-3.546-3.5374-3.5493c-1.9569-0.0033-3.546,1.5804-3.5493,3.5374C6.6583,7.1921,6.6583,7.196,6.6583,7.2z M64.2583,7.2c-0.0034,1.9569,1.5802,3.5461,3.5371,3.5495s3.5461-1.5802,3.5495-3.5371c0-0.0041,0-0.0083,0-0.0124c0.0034-1.9569-1.5802-3.5461-3.5371-3.5495c-1.9569-0.0034-3.5461,1.5802-3.5495,3.5371C64.2583,7.1917,64.2583,7.1959,64.2583,7.2z M6.6583,50.4c-0.0033,1.9569,1.5804,3.546,3.5373,3.5493c1.9569,0.0033,3.546-1.5804,3.5493-3.5373c0-0.004,0-0.008,0-0.012c0.0033-1.9569-1.5804-3.546-3.5374-3.5493s-3.546,1.5804-3.5493,3.5374C6.6583,50.3921,6.6583,50.396,6.6583,50.4z M64.2583,50.4c-0.0034,1.9569,1.5802,3.5461,3.5371,3.5495s3.5461-1.5802,3.5495-3.5371c0-0.0042,0-0.0083,0-0.0125c0.0034-1.9569-1.5802-3.5461-3.5371-3.5495c-1.9569-0.0034-3.5461,1.5802-3.5495,3.5371C64.2583,50.3917,64.2583,50.3959,64.2583,50.4z" />
        <g >
            <g >
                <g transform="matrix(1 0 0 1 16.4032 5.328)" >
                    <text font-size="3.3408" font-family="'OCRA'"  fill="#FFFFFF">Vin-</text>
                </g>
            </g>
            <g >
                <g transform="matrix(1 0 0 1 49.7613 5.3478)" >
                    <text font-size="3.3408" font-family="'OCRA'"  fill="#FFFFFF">Vin+</text>
                </g>
            </g>
            <g >
                <g transform="matrix(1, 0, 0, 1, 24.12, 30.6)" >
                    <g >
                        <g transform="rotate(270)" >
                            <g >
                                <g transform="matrix(1 0 0 1 -4.767470e-05 3.0016)" >
                                    <text font-size="3.87536" font-family="'OCRA'"  fill="#FFFFFF">INA219</text>
                                </g>
                            </g>
                        </g>
                    </g>
                </g>
            </g>
            <g >
                <g transform="matrix(1, 0, 0, 1, 50.4, 30.6)" >
                    <g >
                        <g transform="rotate(270)" >
                            <g >
                                <g transform="matrix(1 0 0 1 -4.767470e-05 3.0016)" >
                                    <text font-size="2.67264" font-family="'OCRA'"  fill="#FFFFFF">DC Current</text>
                                </g>
                            </g>
                        </g>
                    </g>
                </g>
            </g>
            <g >
                <g transform="matrix(1, 0, 0, 1, 54.72, 30.96)" >
                    <g >
                        <g transform="rotate(270)" >
                            <g >
                                <g transform="matrix(1 0 0 1 -0.0004 3.0016)" >
                                    <text font-size="2.67264" font-family="'OCRA'"  fill="#FFFFFF">Sensor</text>
                                </g>
                            </g>
                        </g>
                    </g>
                </g>
            </g>
            <g >
                <g transform="matrix(1 0 0 1 17.3786 56.7504)" >
                    <text font-size="2.67264" font-family="'OCRA'"  fill="#FFFFFF">VIN</text>
                </g>
            </g>
            <g >
                <g transform="matrix(1 0 0 1 24.5786 47.3904)" >
                    <text font-size="2.67264" font-family="'OCRA'"  fill="#FFFFFF">GND</text>
                </g>
            </g>
            <g >
                <g transform="matrix(1 0 0 1 31.7786 56.7504)" >
                    <text font-size="2.67264" font-family="'OCRA'"  fill="#FFFFFF">SCL</text>
                </g>
            </g>
            <g >
                <g transform="matrix(1 0 0 1 38.9786 47.3904)" >
                    <text font-size="2.67264" font-family="'OCRA'"  fill="#FFFFFF">SDA</text>
                </g>
            </g>
            <g >
                <g transform="matrix(1 0 0 1 45.3309 56.7504)" >
                    <text font-size="2.67264" font-family="'OCRA'"  fill="#FFFFFF">VIN-</text>
                </g>
            </g>
            <g >
                <g transform="matrix(1 0 0 1 52.1709 47.3904)" >
                    <text font-size="2.67264" font-family="'OCRA'"  fill="#FFFFFF">VIN+</text>
                </g>
            </g>
            <g >
                <g transform="matrix(1 0 0 1 3.7216 17.64)" >
                    <text font-size="2.67264" font-family="'OCRA'"  fill="#FFFFFF">on</text>
                </g>
            </g>
            <g >
                <g >
                    <line stroke="#FFFFFF" x2="30.6677" y2="37.44" x1="32.9355"  stroke-linecap="round" fill="none" stroke-width="0.864" y1="37.44"/>
                </g>
            </g>
            <g >
                <g >
                    <line stroke="#FFFFFF" x2="25.3216" y2="37.44" x1="28.2016"  stroke-linecap="round" fill="none" stroke-width="0.864" y1="37.44"/>
                </g>
            </g>
            <g >
                <g >
                    <line stroke="#FFFFFF" x2="61.5257" y2="37.3039" x1="68.8958"  stroke-linecap="round" fill="none" stroke-width="0.432" y1="37.3039"/>
                    <line stroke="#FFFFFF" x2="61.5257" y2="34.1858" x1="61.5257"  stroke-linecap="round" fill="none" stroke-width="0.432" y1="37.3039"/>
                    <line stroke="#FFFFFF" x2="61.5257" y2="20.0126" x1="61.5257"  stroke-linecap="round" fill="none" stroke-width="0.432" y1="23.4142"/>
                    <line stroke="#FFFFFF" x2="68.8958" y2="20.0126" x1="61.5257"  stroke-linecap="round" fill="none" stroke-width="0.432" y1="20.0126"/>
                    <line stroke="#FFFFFF" x2="73.7147" y2="22.8473" x1="73.7147"  stroke-linecap="round" fill="none" stroke-width="0.432" y1="34.7527"/>
                </g>
            </g>
            <g >
                <g >
                    <line stroke="#FFFFFF" x2="16.4775" y2="20.2961" x1="9.1075"  stroke-linecap="round" fill="none" stroke-width="0.432" y1="20.2961"/>
                    <line stroke="#FFFFFF" x2="16.4775" y2="23.4142" x1="16.4775"  stroke-linecap="round" fill="none" stroke-width="0.432" y1="20.2961"/>
                    <line stroke="#FFFFFF" x2="16.4775" y2="37.5874" x1="16.4775"  stroke-linecap="round" fill="none" stroke-width="0.432" y1="34.1858"/>
                    <line stroke="#FFFFFF" x2="9.1075" y2="37.5874" x1="16.4775"  stroke-linecap="round" fill="none" stroke-width="0.432" y1="37.5874"/>
                    <line stroke="#FFFFFF" x2="4.2886" y2="34.7527" x1="4.2886"  stroke-linecap="round" fill="none" stroke-width="0.432" y1="22.8473"/>
                </g>
            </g>
            <g >
                <g >
                    <g >
                        <path stroke="#FFFFFF" d="M12.6856,16.92l0.9-0.72v1.44L12.6856,16.92"  stroke-linecap="round" fill="none" stroke-width="0.432"/>
                    </g>
                    <g transform="matrix(0, -1, 1, 0, 9.504, 16.92)" >
                        <g >
                            <g transform="matrix(-2.535182e-06 -1 1 -2.535182e-06 -3.0016 3.0016)" >
                                <rect height="2.16" y="1.9216" width="0.36"  x="-0.18" fill="#FFFFFF"/>
                            </g>
                        </g>
                    </g>
                </g>
            </g>
            <g >
                <g >
                    <line stroke="#FFFFFF" x2="48.6394" y2="4.5638" x1="48.6394"  stroke-linecap="round" fill="none" stroke-width="0.576" y1="20.4378"/>
                    <line stroke="#FFFFFF" x2="48.6394" y2="0.5953" x1="48.6394"  stroke-linecap="round" fill="none" stroke-width="0.576" y1="4.5638"/>
                    <line stroke="#FFFFFF" x2="28.7969" y2="0.5953" x1="48.6394"  stroke-linecap="round" fill="none" stroke-width="0.576" y1="0.5953"/>
                    <line stroke="#FFFFFF" x2="28.7969" y2="4.5638" x1="28.7969"  stroke-linecap="round" fill="none" stroke-width="0.576" y1="0.5953"/>
                    <line stroke="#FFFFFF" x2="28.7969" y2="20.4378" x1="28.7969"  stroke-linecap="round" fill="none" stroke-width="0.576" y1="4.5638"/>
                    <line stroke="#FFFFFF" x2="48.6394" y2="20.4378" x1="28.7969"  stroke-linecap="round" fill="none" stroke-width="0.576" y1="20.4378"/>
                    <line stroke="#FFFFFF" x2="28.7969" y2="4.5638" x1="48.6394"  stroke-linecap="round" fill="none" stroke-width="0.576" y1="4.5638"/>
                </g>
            </g>
            <g >
                <g >
                    <line stroke="#FFFFFF" x2="45.8331" y2="43.1858" x1="53.7701"  stroke-linecap="round" fill="none" stroke-width="0.576" y1="43.1858"/>
                    <line stroke="#FFFFFF" x2="53.7701" y2="32.4142" x1="45.8331"  stroke-linecap="round" fill="none" stroke-width="0.576" y1="32.4142"/>
                </g>
            </g>
            <g >
                <g >
                    <line stroke="#FFFFFF" x2="19.9755" y2="18.72" x1="17.7077"  stroke-linecap="round" fill="none" stroke-width="0.864" y1="18.72"/>
                </g>
            </g>
            <g >
                <g >
                    <circle stroke="#FFFFFF" cy="7.2" r="5.6693" cx="10.2016"  fill="none" stroke-width="0.576"/>
                </g>
            </g>
            <g >
                <g >
                    <circle stroke="#FFFFFF" cy="7.2" r="5.6693" cx="67.8016"  fill="none" stroke-width="0.576"/>
                </g>
            </g>
            <g >
                <g >
                    <circle stroke="#FFFFFF" cy="50.4" r="5.6693" cx="10.2016"  fill="none" stroke-width="0.576"/>
                </g>
            </g>
            <g >
                <g >
                    <circle stroke="#FFFFFF" cy="50.4" r="5.6693" cx="67.8016"  fill="none" stroke-width="0.576"/>
                </g>
            </g>
            <g >
                <g >
                    <line stroke="#FFFFFF" x2="43.537" y2="40.3512" x1="42.9701"  stroke-linecap="round" fill="none" stroke-width="0.576" y1="40.3512"/>
                    <line stroke="#FFFFFF" x2="43.537" y2="35.2488" x1="43.537"  stroke-linecap="round" fill="none" stroke-width="0.576" y1="40.3512"/>
                    <line stroke="#FFFFFF" x2="42.9701" y2="35.2488" x1="43.537"  stroke-linecap="round" fill="none" stroke-width="0.576" y1="35.2488"/>
                    <line stroke="#FFFFFF" x2="34.4662" y2="40.3512" x1="35.0331"  stroke-linecap="round" fill="none" stroke-width="0.576" y1="40.3512"/>
                    <line stroke="#FFFFFF" x2="34.4662" y2="35.2488" x1="34.4662"  stroke-linecap="round" fill="none" stroke-width="0.576" y1="40.3512"/>
                    <line stroke="#FFFFFF" x2="35.0331" y2="35.2488" x1="34.4662"  stroke-linecap="round" fill="none" stroke-width="0.576" y1="35.2488"/>
                    <circle stroke="#FFFFFF" cy="36.5244" r="0.2835" cx="44.5292"  fill="none" stroke-width="0.576"/>
                </g>
            </g>
        </g>
        <g transform="matrix(0, 1, -1, 0, 63.8305, 6.23055)" >
            <g >
                <g transform="matrix(2.535182e-06 1 -1 2.535182e-06 60.8288 3.2288)" >
                    <rect height="3.0472" id="connector5pin" y="30.5053" width="2.8347"  gorn="0.1.2.0.0.0" x="27.3827" fill="#9A916C"/>
                </g>
            </g>
        </g>
        <g transform="matrix(0, 1, -1, 0, 68.6495, 11.0495)" >
            <g >
                <g transform="matrix(2.535182e-06 1 -1 2.535182e-06 65.6478 8.0478)" >
                    <rect height="3.0472" id="connector6pin" y="35.3243" width="2.8347"  gorn="0.1.3.0.0.0" x="27.3827" fill="#9A916C"/>
                </g>
            </g>
        </g>
        <g transform="matrix(0, 1, -1, 0, 58.5071, 10.9871)" >
            <g >
                <g transform="matrix(2.535182e-06 1 -1 2.535182e-06 55.5055 7.9853)" >
                    <rect height="3.515" id="connector7pin" y="29.988" width="4.252"  gorn="0.1.4.0.0.0" x="21.6341" fill="#9A916C"/>
                </g>
            </g>
        </g>
        <g transform="matrix(0, 1, -1, 0, 63.8929, 16.3729)" >
            <g >
                <g transform="matrix(2.535182e-06 1 -1 2.535182e-06 60.8913 13.3711)" >
                    <rect height="3.515" id="connector8pin" y="35.3738" width="4.252"  gorn="0.1.5.0.0.0" x="21.6341" fill="#9A916C"/>
                </g>
            </g>
        </g>
        <g transform="matrix(-1, 0, 0, -1, 115.348, 66.1039)" >
            <g >
                <rect height="1.7008" y="32.2016" width="4.3937"  gorn="0.1.6.0.0" x="52.4753" fill="#9A916C"/>
            </g>
        </g>
        <g transform="matrix(-1, 0, 0, -1, 115.348, 60.4346)" >
            <g >
                <rect height="1.7008" y="29.3669" width="4.3937"  gorn="0.1.7.0.0" x="52.4753" fill="#9A916C"/>
            </g>
        </g>
        <g transform="matrix(-1, 0, 0, -1, 115.348, 54.7654)" >
            <g >
                <rect height="1.7008" y="26.5323" width="4.3937"  gorn="0.1.8.0.0" x="52.4753" fill="#9A916C"/>
            </g>
        </g>
        <g transform="matrix(-1, 0, 0, -1, 115.348, 49.0961)" >
            <g >
                <rect height="1.7008" y="23.6976" width="4.3937"  gorn="0.1.9.0.0" x="52.4753" fill="#9A916C"/>
            </g>
        </g>
        <g transform="matrix(-1, 0, 0, -1, 137.457, 73.4738)" >
            <g >
                <rect height="3.4016" id="connector13pin" y="35.0362" width="5.1024"  gorn="0.1.10.0.0" x="63.176" fill="#9A916C"/>
            </g>
        </g>
        <g transform="matrix(-1, 0, 0, -1, 137.457, 41.726)" >
            <g >
                <rect height="3.4016" id="connector14pin" y="19.1622" width="5.1024"  gorn="0.1.11.0.0" x="63.176" fill="#9A916C"/>
            </g>
        </g>
        <rect height="1.7008" y="23.6976" width="4.3937"  gorn="0.1.12" x="15.1311" fill="#9A916C"/>
        <rect height="1.7008" y="26.5323" width="4.3937"  gorn="0.1.13" x="15.1311" fill="#9A916C"/>
        <rect height="1.7008" y="29.3669" width="4.3937"  gorn="0.1.14" x="15.1311" fill="#9A916C"/>
        <rect height="1.7008" y="32.2016" width="4.3937"  gorn="0.1.15" x="15.1311" fill="#9A916C"/>
        <rect height="3.4016" id="connector19pin" y="19.1622" width="5.1024"  gorn="0.1.16" x="3.7216" fill="#9A916C"/>
        <rect height="3.4016" id="connector20pin" y="35.0362" width="5.1024"  gorn="0.1.17" x="3.7216" fill="#9A916C"/>
        <g transform="matrix(0, -1, 1, 0, -4.71401, 29.126)" >
            <g >
                <g transform="matrix(-2.535182e-06 -1 1 -2.535182e-06 -7.7155 32.1277)" >
                    <rect height="2.2677" id="connector21pin" y="18.7877" width="2.2677"  gorn="0.1.18.0.0.0" x="11.0722" fill="#9A916C"/>
                </g>
            </g>
        </g>
        <g transform="matrix(0, -1, 1, 0, -8.96602, 24.874)" >
            <g >
                <g transform="matrix(-2.535182e-06 -1 1 -2.535182e-06 -11.9676 27.8757)" >
                    <rect height="2.2677" id="connector22pin" y="18.7877" width="2.2677"  gorn="0.1.19.0.0.0" x="6.8202" fill="#9A916C"/>
                </g>
            </g>
        </g>
        <path d="M5.8816,40.7027L5.8816,40.7027c0.7828,0,1.4173,0.6346,1.4173,1.4173v0c0,0.7828-0.6346,1.4173-1.4173,1.4173h0c-0.7828,0-1.4173-0.6346-1.4173-1.4173v0C4.4643,41.3373,5.0989,40.7027,5.8816,40.7027z" id="connector23pin"  gorn="0.1.20" fill="#9A916C"/>
        <path d="M71.7617,13.7027L71.7617,13.7027c0.7828,0,1.4173,0.6346,1.4173,1.4173v0c0,0.7828-0.6346,1.4173-1.4173,1.4173h0c-0.7828,0-1.4173-0.6346-1.4173-1.4173v0C70.3443,14.3373,70.9789,13.7027,71.7617,13.7027z" id="connector24pin"  gorn="0.1.21" fill="#9A916C"/>
        <circle stroke="#9A916C" cy="10.8" r="2.2567" cx="33.8992"  gorn="0.1.22" fill="none" stroke-width="1.6787"/>
        <circle stroke="#9A916C" cy="10.8" r="2.2567" cx="43.8205"  gorn="0.1.23" fill="none" stroke-width="1.6787"/>
        <circle stroke="#9A916C" cy="50.4" r="1.9687" id="connector27pin" cx="21.0016"  gorn="0.1.24" fill="none" stroke-width="1.1027"/>
        <circle stroke="#9A916C" cy="50.4" r="1.9687" id="connector28pin" cx="28.2016"  gorn="0.1.25" fill="none" stroke-width="1.1027"/>
        <circle stroke="#9A916C" cy="50.4" r="1.9687" id="connector29pin" cx="35.4016"  gorn="0.1.26" fill="none" stroke-width="1.1027"/>
        <circle stroke="#9A916C" cy="50.4" r="1.9687" id="connector30pin" cx="42.6016"  gorn="0.1.27" fill="none" stroke-width="1.1027"/>
        <circle stroke="#9A916C" cy="50.4" r="1.9687" id="connector31pin" cx="49.8016"  gorn="0.1.28" fill="none" stroke-width="1.1027"/>
        <circle stroke="#9A916C" cy="50.4" r="1.9687" id="connector32pin" cx="57.0016"  gorn="0.1.29" fill="none" stroke-width="1.1027"/>
        <rect height="9.0709" id="connector33pin" y="21.3846" width="5.1024"  gorn="0.1.30" x="28.5134" fill="#9A916C"/>
        <rect height="9.0709" id="connector34pin" y="21.3846" width="5.1024"  gorn="0.1.31" x="44.3874" fill="#9A916C"/>
        <g transform="matrix(0, 1, -1, 0, 78.5052, -10.2756)" >
            <g >
                <g transform="matrix(2.535182e-06 1 -1 2.535182e-06 75.5036 -13.2773)" >
                    <rect height="1.2756" id="connector35pin" y="30.4755" width="2.5512"  gorn="0.1.32.0.0.0" x="43.1149" fill="#9A916C"/>
                </g>
            </g>
        </g>
        <g transform="matrix(0, 1, -1, 0, 81.0569, -7.72438)" >
            <g >
                <g transform="matrix(2.535182e-06 1 -1 2.535182e-06 78.0548 -10.7261)" >
                    <rect height="1.2756" id="connector36pin" y="33.0267" width="2.5512"  gorn="0.1.33.0.0.0" x="43.1149" fill="#9A916C"/>
                </g>
            </g>
        </g>
        <g transform="matrix(0, 1, -1, 0, 83.3242, -5.45669)" >
            <g >
                <g transform="matrix(2.535182e-06 1 -1 2.535182e-06 80.3225 -8.4584)" >
                    <rect height="1.2756" id="connector37pin" y="35.2944" width="2.5512"  gorn="0.1.34.0.0.0" x="43.1149" fill="#9A916C"/>
                </g>
            </g>
        </g>
        <g transform="matrix(0, 1, -1, 0, 85.8758, -2.90551)" >
            <g >
                <g transform="matrix(2.535182e-06 1 -1 2.535182e-06 82.8738 -5.9071)" >
                    <rect height="1.2756" id="connector38pin" y="37.8457" width="2.5512"  gorn="0.1.35.0.0.0" x="43.1149" fill="#9A916C"/>
                </g>
            </g>
        </g>
        <g transform="matrix(0, 1, -1, 0, 90.6948, -7.72438)" >
            <g >
                <g transform="matrix(2.535182e-06 1 -1 2.535182e-06 87.6927 -10.726)" >
                    <rect height="1.2756" id="connector39pin" y="37.8457" width="2.5512"  gorn="0.1.36.0.0.0" x="47.9338" fill="#9A916C"/>
                </g>
            </g>
        </g>
        <g transform="matrix(0, 1, -1, 0, 88.1431, -10.2756)" >
            <g >
                <g transform="matrix(2.535182e-06 1 -1 2.535182e-06 85.1414 -13.2773)" >
                    <rect height="1.2756" id="connector40pin" y="35.2944" width="2.5512"  gorn="0.1.37.0.0.0" x="47.9338" fill="#9A916C"/>
                </g>
            </g>
        </g>
        <g transform="matrix(0, 1, -1, 0, 85.8758, -12.5433)" >
            <g >
                <g transform="matrix(2.535182e-06 1 -1 2.535182e-06 82.8737 -15.545)" >
                    <rect height="1.2756" id="connector41pin" y="33.0267" width="2.5512"  gorn="0.1.38.0.0.0" x="47.9338" fill="#9A916C"/>
                </g>
            </g>
        </g>
        <g transform="matrix(0, 1, -1, 0, 83.3242, -15.0945)" >
            <g >
                <g transform="matrix(2.535182e-06 1 -1 2.535182e-06 80.3225 -18.0962)" >
                    <rect height="1.2756" id="connector42pin" y="30.4755" width="2.5512"  gorn="0.1.39.0.0.0" x="47.9338" fill="#9A916C"/>
                </g>
            </g>
        </g>
        <g transform="matrix(0, -1, 1, 0, -5.28945, 36.9695)" >
            <g >
                <g transform="matrix(-2.535182e-06 -1 1 -2.535182e-06 -8.2911 39.9712)" >
                    <rect height="3.0472" id="connector43pin" y="22.6075" width="2.8347"  gorn="0.1.40.0.0.0" x="14.4227" fill="#9A916C"/>
                </g>
            </g>
        </g>
        <g transform="matrix(0, -1, 1, 0, -0.470551, 32.1505)" >
            <g >
                <g transform="matrix(-2.535182e-06 -1 1 -2.535182e-06 -3.4721 35.1522)" >
                    <rect height="3.0472" id="connector44pin" y="17.7885" width="2.8347"  gorn="0.1.41.0.0.0" x="14.4227" fill="#9A916C"/>
                </g>
            </g>
        </g>
        <circle stroke="#9A916C" cy="7.2" r="4.2633" id="connector45pin" cx="10.2016"  gorn="0.1.42" fill="none" stroke-width="1.44"/>
        <circle stroke="#9A916C" cy="7.2" r="4.2633" id="connector46pin" cx="67.8016"  gorn="0.1.43" fill="none" stroke-width="1.44"/>
        <circle stroke="#9A916C" cy="50.4" r="4.2633" id="connector47pin" cx="10.2016"  gorn="0.1.44" fill="none" stroke-width="1.44"/>
        <circle stroke="#9A916C" cy="50.4" r="4.2633" id="connector48pin" cx="67.8016"  gorn="0.1.45" fill="none" stroke-width="1.44"/>
        <g transform="matrix(-1, 0, 0, -1, 77.5274, 68.2299)" >
            <g >
                <rect height="3.4016" id="connector49pin" y="32.4142" width="1.1339"  gorn="0.1.46.0.0" x="35.1953" fill="#9A916C"/>
            </g>
        </g>
        <g transform="matrix(-1, 0, 0, -1, 73.8425, 68.2299)" >
            <g >
                <rect height="3.4016" id="connector50pin" y="32.4142" width="1.1339"  gorn="0.1.47.0.0" x="33.3527" fill="#9A916C"/>
            </g>
        </g>
        <g transform="matrix(-1, 0, 0, -1, 70.1574, 68.2299)" >
            <g >
                <rect height="3.4016" id="connector51pin" y="32.4142" width="1.1339"  gorn="0.1.48.0.0" x="31.5102" fill="#9A916C"/>
            </g>
        </g>
        <g transform="matrix(-1, 0, 0, -1, 66.4724, 68.2299)" >
            <g >
                <rect height="3.4016" id="connector52pin" y="32.4142" width="1.1339"  gorn="0.1.49.0.0" x="29.6677" fill="#9A916C"/>
            </g>
        </g>
        <g transform="matrix(-1, 0, 0, -1, 66.4724, 82.9699)" >
            <g >
                <rect height="3.4016" id="connector53pin" y="39.7842" width="1.1339"  gorn="0.1.50.0.0" x="29.6677" fill="#9A916C"/>
            </g>
        </g>
        <g transform="matrix(-1, 0, 0, -1, 70.1574, 82.9699)" >
            <g >
                <rect height="3.4016" id="connector54pin" y="39.7842" width="1.1339"  gorn="0.1.51.0.0" x="31.5102" fill="#9A916C"/>
            </g>
        </g>
        <g transform="matrix(-1, 0, 0, -1, 73.8425, 82.9699)" >
            <g >
                <rect height="3.4016" id="connector55pin" y="39.7842" width="1.1339"  gorn="0.1.52.0.0" x="33.3527" fill="#9A916C"/>
            </g>
        </g>
        <g transform="matrix(-1, 0, 0, -1, 77.5274, 82.9699)" >
            <g >
                <rect height="3.4016" id="connector56pin" y="39.7842" width="1.1339"  gorn="0.1.53.0.0" x="35.1953" fill="#9A916C"/>
            </g>
        </g>
    </g>
    <g transform="matrix(1, 0, 0, 1, 26.5325, 36.306)" >
        <g id="_x30_603-cap"  gorn="0.2.0">
            <g transform="matrix(0, 1, -1, 0, 3.4015, -1.1335)" >
                <g >
                    <path d="M4.245-0.7336H0.29c-0.16,0-0.29-0.13-0.29-0.291v-1.687c0-0.16,0.13-0.29,0.29-0.29h3.955c0.16,0,0.29,0.13,0.29,0.29v1.687C4.535-0.8636,4.405-0.7336,4.245-0.7336z"  fill="#DCDCDC"/>
                    <g transform="matrix(2.535182e-06 1 -1 2.535182e-06 0.4004 -4.1356)" >
                        <rect height="2.268" y="-3.0016" width="2.268"  x="1.134" fill="#6E554B"/>
                    </g>
                </g>
            </g>
        </g>
    </g>
    <g transform="matrix(1, 0, 0, 1, 20.9255, 35.6685)" >
        <g id="_x30_805-cap"  gorn="0.3.0">
            <g transform="matrix(0, 1, -1, 0, 4.606, -1.063)" >
                <g >
                    <path d="M5.386,0.5414H0.283C0.127,0.5414,0,0.4144,0,0.2584v-2.977c0-0.156,0.127-0.283,0.283-0.283h5.102c0.157,0,0.283,0.127,0.283,0.283v2.977C5.669,0.4144,5.542,0.5414,5.386,0.5414z"  fill="#DCDCDC"/>
                    <g transform="matrix(2.535182e-06 1 -1 2.535182e-06 1.6044 -4.0646)" >
                        <rect height="3.543" y="-3.0016" width="3.543"  x="1.063" fill="#6E554B"/>
                    </g>
                </g>
            </g>
        </g>
    </g>
    <g transform="matrix(1, 0, 0, 1, 54.5625, 19.6925)" >
        <g id="jst_sh4"  gorn="0.4.0">
            <g transform="matrix(0, -1, 1, 0, -0.291564, 17.9233)" >
                <g >
                    <path d="M1.8323,7.7135l14.1872-0.017l0.0019,1.4315l1.4185-0.0017l0.0136,10.0208L0.4297,19.1675L0.4161,9.1467l1.418-0.0017L1.8323,7.7135z" id="polygon5"  gorn="0.4.0.0.0.0" connector-curvature="0" fill="#666666"/>
                    <g transform="matrix(-0.0068 -1 1 -0.0068 2.0742 27.3186)" >
                        <rect height="1.4185" id="rect7" y="11.92" width="4.3718"  gorn="0.4.0.0.0.1.0" x="12.4177"/>
                    </g>
                    <g transform="matrix(-0.0068 -1 1 -0.0068 -9.4265 16.0506)" >
                        <rect height="1.4185" id="rect9" y="11.9973" width="4.3718"  gorn="0.4.0.0.0.2.0" x="1.0716"/>
                    </g>
                    <g transform="matrix(-0.0068 -1 1 -0.0068 4.9671 24.3627)" >
                        <rect height="1.4185" id="rect11" y="9.0054" width="1.4574"  gorn="0.4.0.0.0.3.0" x="13.8534" fill="#333333"/>
                    </g>
                    <g transform="matrix(-0.0068 -1 1 -0.0068 -6.5337 13.0947)" >
                        <rect height="1.4185" id="rect13" y="9.0827" width="1.4574"  gorn="0.4.0.0.0.4.0" x="2.5073" fill="#333333"/>
                    </g>
                    <g transform="matrix(-0.0068 -1 1 -0.0068 6.0609 20.3678)" >
                        <rect height="0.9927" id="rect19" y="6.6777" width="3.6433"  gorn="0.4.0.0.0.5.0" x="11.3235" fill="#DCDCDC"/>
                    </g>
                    <g transform="matrix(-0.0068 -1 1 -0.0068 3.1859 17.551)" >
                        <rect height="0.9927" id="rect21" y="6.697" width="3.6433"  gorn="0.4.0.0.0.6.0" x="8.4872" fill="#DCDCDC"/>
                    </g>
                    <g transform="matrix(-0.0068 -1 1 -0.0068 3.1859 17.551)" >
                        <rect height="0.9927" id="rect4164" y="6.697" width="3.6433"  gorn="0.4.0.0.0.7.0" x="8.4872" fill="#DCDCDC"/>
                    </g>
                    <g transform="matrix(-0.0068 -1 1 -0.0068 0.3106 14.7339)" >
                        <rect height="0.9927" id="rect4188" y="6.7163" width="3.6433"  gorn="0.4.0.0.0.8.0" x="5.6505" fill="#DCDCDC"/>
                    </g>
                    <g transform="matrix(-0.0068 -1 1 -0.0068 -2.5646 11.9168)" >
                        <rect height="0.9927" id="rect4143" y="6.7357" width="3.6433"  gorn="0.4.0.0.0.9.0" x="2.814" fill="#DCDCDC"/>
                    </g>
                    <path d="M0.4301,14.2805c0-2.6862-0.0043-4.9385-0.0095-5.0052L0.4111,9.1541h0.7148h0.7148V8.4342V7.7143h1.1437h1.1436l0.0097,0.3416c0.0053,0.1879,0.0097,0.492,0.0097,0.6758l0,0.3342l0.2241,0c0.1232,0,0.348-0.0044,0.4995-0.0097l0.2755-0.0096V8.3805V7.7143H6.055h0.9086l0.0096,0.2314C6.9785,8.073,6.9829,8.3705,6.9829,8.6068l0,0.4297l0.4996,0H7.982V8.3754V7.7143H8.893h0.9109l0.0018,0.1102c0.001,0.0606,0.0035,0.1168,0.0055,0.1249c0.002,0.0081,0.0045,0.2528,0.0055,0.5438l0.0018,0.5291l0.5007-0.0039L10.82,9.0146l-0.0018-0.6501l-0.0018-0.6501h0.9099c0.8162,0,0.9108,0.0024,0.9188,0.0232c0.0049,0.0128,0.0089,0.3037,0.0089,0.6465v0.6232h0.3062c0.1684,0,0.3949-0.0042,0.5032-0.0094l0.197-0.0094L13.6562,8.344l-0.0044-0.6444h1.1834h1.1834v0.7199v0.7199h0.7028h0.7028l0.0098,1.6553c0.0054,0.9104,0.0098,3.1616,0.0098,5.0027v3.3474l-3.2507,0c-1.7879,0-5.6159,0.0044-8.5068,0.0098l-5.2562,0.0098L0.4301,14.2805z M3.9858,14.5939c0.0002-0.545-0.0289-4.2541-0.0384-4.9092L3.9381,9.0474L3.231,9.0581C2.8421,9.0641,2.522,9.0706,2.5198,9.0727c-0.0055,0.0052,0.0236,4.2668,0.0351,5.1319l0.0092,0.6942h0.7108h0.7108L3.9858,14.5939L3.9858,14.5939z M15.3231,14.8058c0.0116-0.0116-0.0206-5.4879-0.0335-5.6931l-0.0086-0.1369l-0.7026,0.0047c-0.3864,0.0026-0.7058,0.008-0.7097,0.012c-0.0067,0.0069,0.0045,1.8862,0.0275,4.6263l0.0102,1.2104l0.7033-0.0067C14.9966,14.8188,15.3176,14.8113,15.3231,14.8058z" id="path594"  gorn="0.4.0.0.0.10" connector-curvature="0"/>
                    <path d="M2.5257,10.4324c-0.005-0.0525-0.0091-0.3774-0.0091-0.722L2.5165,9.0839l0.0551-0.0071C2.6452,9.0674,3.0512,9.06,3.5389,9.0592l0.398-0.0006L3.946,9.5802c0.005,0.2869,0.0051,0.6157,0.0001,0.7307L3.9371,10.52l-0.7012,0.004l-0.7012,0.004L2.5257,10.4324z" id="path596"  gorn="0.4.0.0.0.11" connector-curvature="0"/>
                    <path d="M13.8832,10.2464c-0.0053-0.1104-0.0096-0.4376-0.0096-0.7273l0.0001-0.5266l0.1065-0.0034c0.0586-0.0019,0.3759-0.0035,0.7052-0.0037l0.5986-0.0002l0.0016,0.0955c0.0009,0.0525,0.0026,0.3814,0.0038,0.7309l0.0022,0.6354l-0.6993,0l-0.6993,0L13.8832,10.2464z" id="path598"  gorn="0.4.0.0.0.12" connector-curvature="0"/>
                    <g transform="matrix(-2.535182e-06 -1 1 -2.535182e-06 -19.2835 23.819)" >
                        <ellipse cy="21.5512" ry="2.0127" rx="2.0127" id="connector9pin" cx="2.2677"  gorn="0.4.0.0.0.13.0"/>
                    </g>
                    <g transform="matrix(-2.535182e-06 -1 1 -2.535182e-06 -14.7481 28.3545)" >
                        <ellipse cy="21.5512" ry="2.0127" rx="2.0127" id="connector10pin" cx="6.8032"  gorn="0.4.0.0.0.14.0" fill="#FF0000"/>
                    </g>
                    <g transform="matrix(-2.535182e-06 -1 1 -2.535182e-06 -10.2126 32.8899)" >
                        <ellipse cy="21.5512" ry="2.0127" rx="2.0127" id="connector11pin" cx="11.3386"  gorn="0.4.0.0.0.15.0" fill="#0000FF"/>
                    </g>
                    <g transform="matrix(-2.535182e-06 -1 1 -2.535182e-06 -5.6772 37.4253)" >
                        <ellipse cy="21.5512" ry="2.0127" rx="2.0127" id="connector12pin" cx="15.874"  gorn="0.4.0.0.0.16.0" fill="#FFFF00"/>
                    </g>
                </g>
            </g>
        </g>
    </g>
    <g transform="matrix(1, 0, 0, 1, -0.194322, 19.6925)" >
        <g id="jst_sh4_00000036252404264738450410000006187920373877512589_"  gorn="0.5.0">
            <g transform="matrix(0, 1, -1, 0, 17.9233, 0.291564)" >
                <g >
                    <path d="M1.8323,1.8785l14.1872-0.017l0.0019,1.4315l1.4185-0.0017l0.0136,10.0208L0.4297,13.3325L0.416,3.3117L1.834,3.31L1.8323,1.8785z" id="polygon5_00000140731609805447957850000000747833534268089257_"  gorn="0.5.0.0.0.0" connector-curvature="0" fill="#666666"/>
                    <g transform="matrix(0.0068 1 -1 0.0068 21.2981 -7.8553)" >
                        <rect height="1.4185" id="rect7_00000175295069459667249620000003194163285763947658_" y="6.085" width="4.3718"  gorn="0.5.0.0.0.1.0" x="12.4177"/>
                    </g>
                    <g transform="matrix(0.0068 1 -1 0.0068 10.1067 3.5673)" >
                        <rect height="1.4185" id="rect9_00000129185837815446534480000002323297909021737638_" y="6.1623" width="4.3718"  gorn="0.5.0.0.0.2.0" x="1.0716"/>
                    </g>
                    <g transform="matrix(0.0068 1 -1 0.0068 18.3623 -10.7285)" >
                        <rect height="1.4185" id="rect11_00000100376957728506278580000003965299406398134150_" y="3.1705" width="1.4574"  gorn="0.5.0.0.0.3.0" x="13.8534" fill="#333333"/>
                    </g>
                    <g transform="matrix(0.0068 1 -1 0.0068 7.1709 0.6941)" >
                        <rect height="1.4185" id="rect13_00000152971745996387110680000013063828700307266719_" y="3.2478" width="1.4574"  gorn="0.5.0.0.0.4.0" x="2.5073" fill="#333333"/>
                    </g>
                    <g transform="matrix(0.0068 1 -1 0.0068 14.3946 -11.8149)" >
                        <rect height="0.9927" id="rect19_00000000181241708400416680000013147256568421717418_" y="0.8427" width="3.6433"  gorn="0.5.0.0.0.5.0" x="11.3235" fill="#DCDCDC"/>
                    </g>
                    <g transform="matrix(0.0068 1 -1 0.0068 11.5969 -8.9594)" >
                        <rect height="0.9927" id="rect21_00000103258293017373637210000010483768621463368886_" y="0.862" width="3.6433"  gorn="0.5.0.0.0.6.0" x="8.4871" fill="#DCDCDC"/>
                    </g>
                    <g transform="matrix(0.0068 1 -1 0.0068 11.5969 -8.9594)" >
                        <rect height="0.9927" id="rect4164_00000106856350290307959800000013910900411623709117_" y="0.862" width="3.6433"  gorn="0.5.0.0.0.7.0" x="8.4871" fill="#DCDCDC"/>
                    </g>
                    <g transform="matrix(0.0068 1 -1 0.0068 8.7989 -6.1037)" >
                        <rect height="0.9927" id="rect4188_00000096756541459913403410000006423407776218558098_" y="0.8814" width="3.6433"  gorn="0.5.0.0.0.8.0" x="5.6505" fill="#DCDCDC"/>
                    </g>
                    <g transform="matrix(0.0068 1 -1 0.0068 6.001 -3.248)" >
                        <rect height="0.9927" id="rect4143_00000174564779932349918390000014606372335238495377_" y="0.9007" width="3.6433"  gorn="0.5.0.0.0.9.0" x="2.814" fill="#DCDCDC"/>
                    </g>
                    <path d="M0.4301,8.4455c0-2.6862-0.0043-4.9385-0.0095-5.0052L0.4111,3.3191h0.7148h0.7148V2.5992V1.8793h1.1437h1.1436l0.0097,0.3416c0.0053,0.1879,0.0097,0.492,0.0097,0.6758l0,0.3342l0.2241,0c0.1232,0,0.348-0.0044,0.4995-0.0097l0.2755-0.0096V2.5455V1.8793H6.055h0.9086l0.0096,0.2314C6.9785,2.238,6.9828,2.5355,6.9829,2.7719l0,0.4297l0.4996,0H7.982V2.5404V1.8793h0.9109h0.9109l0.0018,0.1102c0.001,0.0606,0.0035,0.1168,0.0055,0.1249c0.002,0.0081,0.0045,0.2528,0.0055,0.5438l0.0018,0.5291l0.5007-0.0039L10.82,3.1796l-0.0018-0.6501l-0.0018-0.6501h0.9099c0.8162,0,0.9108,0.0024,0.9188,0.0232c0.0049,0.0128,0.0089,0.3037,0.0089,0.6465v0.6232h0.3062c0.1684,0,0.3949-0.0042,0.5032-0.0094l0.197-0.0094L13.6562,2.509l-0.0044-0.6444h1.1834h1.1834v0.7199v0.7199h0.7028h0.7028l0.0098,1.6553c0.0054,0.9104,0.0098,3.1616,0.0098,5.0027v3.3474l-3.2507,0c-1.7879,0-5.6159,0.0044-8.5068,0.0098l-5.2562,0.0098L0.4301,8.4455z M3.9858,8.7589c0.0002-0.545-0.0289-4.2541-0.0384-4.9092L3.9381,3.2124L3.231,3.2231C2.842,3.2291,2.522,3.2356,2.5198,3.2377C2.5142,3.2429,2.5433,7.5045,2.5548,8.3696L2.564,9.0638h0.7108h0.7108L3.9858,8.7589L3.9858,8.7589z M15.3231,8.9708c0.0116-0.0116-0.0206-5.4879-0.0335-5.6931L15.281,3.1408l-0.7026,0.0047c-0.3864,0.0026-0.7058,0.008-0.7097,0.012c-0.0067,0.0069,0.0045,1.8862,0.0275,4.6263l0.0102,1.2104l0.7033-0.0067C14.9966,8.9838,15.3176,8.9763,15.3231,8.9708z" id="path594_00000159457906174512963940000001884107396996198559_"  gorn="0.5.0.0.0.10" connector-curvature="0"/>
                    <path d="M2.5257,4.5974c-0.005-0.0525-0.0091-0.3774-0.0091-0.722L2.5165,3.2489l0.0551-0.0071C2.6452,3.2324,3.0512,3.225,3.5389,3.2242l0.398-0.0006L3.946,3.7452c0.005,0.2869,0.0051,0.6157,0.0001,0.7307L3.9371,4.685l-0.7012,0.004l-0.7012,0.004L2.5257,4.5974z" id="path596_00000070084162532749647870000010641995680793161094_"  gorn="0.5.0.0.0.11" connector-curvature="0"/>
                    <path d="M13.8832,4.4114c-0.0053-0.1104-0.0096-0.4376-0.0096-0.7273l0.0001-0.5266l0.1065-0.0034c0.0586-0.0019,0.3759-0.0035,0.7052-0.0037l0.5986-0.0002l0.0016,0.0955c0.0009,0.0525,0.0026,0.3814,0.0038,0.7309l0.0022,0.6354l-0.6993,0l-0.6993,0L13.8832,4.4114z" id="path598_00000127765560013683131600000013308037606335464608_"  gorn="0.5.0.0.0.12" connector-curvature="0"/>
                    <g transform="matrix(2.535182e-06 1 -1 2.535182e-06 17.984 13.4485)" >
                        <ellipse cy="15.7162" ry="2.0127" rx="2.0127" id="connector15pin" cx="2.2677"  gorn="0.5.0.0.0.13.0"/>
                    </g>
                    <g transform="matrix(2.535182e-06 1 -1 2.535182e-06 22.5194 8.9131)" >
                        <ellipse cy="15.7162" ry="2.0127" rx="2.0127" id="connector16pin" cx="6.8031"  gorn="0.5.0.0.0.14.0" fill="#FF0000"/>
                    </g>
                    <g transform="matrix(2.535182e-06 1 -1 2.535182e-06 27.0548 4.3776)" >
                        <ellipse cy="15.7162" ry="2.0127" rx="2.0127" id="connector17pin" cx="11.3386"  gorn="0.5.0.0.0.15.0" fill="#0000FF"/>
                    </g>
                    <g transform="matrix(2.535182e-06 1 -1 2.535182e-06 31.5902 -0.1578)" >
                        <ellipse cy="15.7162" ry="2.0127" rx="2.0127" id="connector18pin" cx="15.874"  gorn="0.5.0.0.0.16.0" fill="#FFFF00"/>
                    </g>
                </g>
            </g>
        </g>
    </g>
    <g transform="matrix(1, 0, 0, 1, 8.946, 14.6525)" >
        <g id="_x30_603-led-green"  gorn="0.6.0">
            <g transform="matrix(0, -1, 1, 0, -1.1335, 3.4015)" >
                <g >
                    <path d="M2.268,3.2916v3.955c0,0.16-0.13,0.29-0.29,0.29H0.29c-0.16,0-0.29-0.13-0.29-0.29v-3.955c0-0.16,0.13-0.29,0.29-0.29h1.687C2.138,3.0016,2.268,3.1316,2.268,3.2916z"  fill="#DCDCDC"/>
                    <g transform="matrix(-2.535182e-06 -1 1 -2.535182e-06 -4.1351 6.4033)" >
                        <rect height="2.268" y="4.1352" width="2.268"  x="0.0001" fill="#00FF00"/>
                    </g>
                    <circle cy="5.2696" r="0.354" cx="1.134"  fill="#00B400"/>
                </g>
            </g>
        </g>
    </g>
    <g transform="matrix(1, 0, 0, 1, 24.6613, 0.595259)" >
        <g id="termblock_1x2-3.5mm"  gorn="0.7.0">
            <g transform="matrix(-1, 0, 0, -1, 22.1105, 19.8426)" >
                <g >
                    <rect height="5.1019" id="rect3" y="12.1887" width="2.2679"  gorn="0.7.0.0.0.0" x="15.707"/>
                    <rect height="2.2679" id="rect5" y="1.134" width="2.2679"  gorn="0.7.0.0.0.1" x="16.841"/>
                    <polygon points="17.9739,0 -1.8677,0 -1.8677,13.6057 -3.0016,13.6057 -3.0016,15.8736 -1.8677,15.8736 -1.8677,18.4246 17.9739,18.4246 17.9739,15.8736 16.8409,15.8736 16.8409,13.6057 17.9739,13.6057 " id="polygon7"  gorn="0.7.0.0.0.2" fill="#333333"/>
                    <circle cy="9.9207" r="3.6849" id="circle9" cx="3.0932"  gorn="0.7.0.0.0.3" fill="#B4B4B4"/>
                    <circle cy="9.9207" r="3.6849" id="circle11" cx="13.014"  gorn="0.7.0.0.0.4" fill="#B4B4B4"/>
                    <rect height="2.8349" id="rect13_00000085213146321213910440000001680095756177675396_" y="1.417" width="7.3698"  gorn="0.7.0.0.0.5" x="-0.4507"/>
                    <rect height="2.8349" id="rect15" y="1.417" width="7.3698"  gorn="0.7.0.0.0.6" x="8.3371"/>
                    <polygon points="-1.8677,19.8425 1.6753,19.8425 1.6753,18.0886 4.5102,18.0886 4.5102,19.8425 11.596,19.8425 11.596,18.0886 14.4309,18.0886 14.4309,19.8425 17.9739,19.8425 17.9739,17.0076 -1.8677,17.0076 " id="polygon17"  gorn="0.7.0.0.0.7"/>
                    <rect height="1.701" id="connector26pin" y="17.8046" width="8.5038"  gorn="0.7.0.0.0.8" x="-1.1587" fill="#8C8C8C"/>
                    <rect height="1.701" id="connector25pin" y="17.8046" width="8.5038"  gorn="0.7.0.0.0.9" x="8.7621" fill="#8C8C8C"/>
                    <path d="M3.1802,6.9628l-1.643,0.44l0.514,1.917l-2.6329,0.706c0.008,0.282,0.039,0.565,0.115,0.849c0.076,0.284,0.191,0.545,0.325,0.793l2.6329-0.706l0.514,1.917l1.643-0.44l-0.514-1.917l2.6329-0.706c-0.008-0.281-0.039-0.565-0.115-0.848c-0.076-0.283-0.191-0.546-0.325-0.794l-2.6329,0.706L3.1802,6.9628z" id="path23"  gorn="0.7.0.0.0.10" connector-curvature="0" fill="#646464"/>
                    <path d="M10.4961,8.3658l-0.44,1.643l1.917,0.514l-0.706,2.6329c0.248,0.134,0.509,0.249,0.793,0.325c0.284,0.076,0.568,0.107,0.849,0.115l0.706-2.6329l1.917,0.514l0.44-1.643l-1.917-0.514l0.706-2.6329c-0.248-0.134-0.509-0.249-0.793-0.325c-0.284-0.076-0.568-0.107-0.849-0.115l-0.707,2.6329L10.4961,8.3658z" id="path25"  gorn="0.7.0.0.0.11" connector-curvature="0" fill="#646464"/>
                </g>
            </g>
        </g>
    </g>
    <g transform="matrix(1, 0, 0, 1, 27, 21.6)" >
        <g id="_x32_512_00000088842343136718328040000003696264329893709493_"  gorn="0.8.0">
            <g transform="matrix(2.47748, 0, 0, 1.51376, 0, 0.0575911)" >
                <g id="_x32_512"  gorn="0.8.0.0.0">
                    <path d="M8.2412,5.6696H1.438c-0.1248,0-0.2264-0.1016-0.2264-0.2272v-5.216C1.2116,0.1016,1.3132,0,1.438,0h6.8032c0.1256,0,0.2264,0.1016,0.2264,0.2264v5.216C8.4684,5.568,8.3668,5.6696,8.2412,5.6696z" id="path9433"  gorn="0.8.0.0.0.0" connector-curvature="0" fill="#DCDCDC"/>
                    <rect height="5.6696" id="rect9435" y="0" width="4.9888"  gorn="0.8.0.0.0.1" x="2.3452" fill="#333333"/>
                </g>
            </g>
        </g>
    </g>
    <g transform="matrix(1, 0, 0, 1, 42.2645, 35.5325)" >
        <g id="respack_4x0603"  gorn="0.9.0">
            <g transform="matrix(0, 1, -1, 0, 6.80299, -2.26799)" >
                <g >
                    <g >
                        <g transform="matrix(2.535182e-06 1 -1 2.535182e-06 0.1874 -1.6556)" >
                            <rect height="1.843" y="-1.6556" width="4.535"  x="-1.346" fill="#DCDCDC"/>
                        </g>
                        <g transform="matrix(2.535182e-06 1 -1 2.535182e-06 2.6674 -4.1356)" >
                            <rect height="1.417" y="-1.4426" width="4.535"  x="1.134" fill="#DCDCDC"/>
                        </g>
                        <g transform="matrix(2.535182e-06 1 -1 2.535182e-06 4.9354 -6.4036)" >
                            <rect height="1.417" y="-1.4426" width="4.535"  x="3.402" fill="#DCDCDC"/>
                        </g>
                        <g transform="matrix(2.535182e-06 1 -1 2.535182e-06 7.4154 -8.8836)" >
                            <rect height="1.843" y="-1.6556" width="4.535"  x="5.882" fill="#DCDCDC"/>
                        </g>
                        <g transform="matrix(2.535182e-06 1 -1 2.535182e-06 3.8014 -5.2696)" >
                            <rect height="9.071" y="-5.2696" width="2.835"  x="3.118" fill="#303030"/>
                        </g>
                    </g>
                </g>
            </g>
        </g>
    </g>
    <g transform="matrix(1, 0, 0, 1, 13.5725, 17.586)" >
        <g id="_x30_603-res"  gorn="0.10.0">
            <g transform="matrix(0, -1, 1, 0, 1.1335, 3.4015)" >
                <g >
                    <path d="M4.245,5.2696H0.29c-0.16,0-0.29-0.13-0.29-0.291v-1.687c0-0.16,0.13-0.29,0.29-0.29h3.955c0.16,0,0.29,0.13,0.29,0.29v1.687C4.535,5.1396,4.405,5.2696,4.245,5.2696z"  fill="#DCDCDC"/>
                    <g transform="matrix(-2.535182e-06 -1 1 -2.535182e-06 -1.8676 6.4036)" >
                        <rect height="2.268" y="3.0016" width="2.268"  x="1.134" fill="#333333"/>
                    </g>
                </g>
            </g>
        </g>
    </g>
    <g transform="matrix(1, 0, 0, 1, 11.6925, 36.849)" >
        <g id="adafruit_3.5mm"  gorn="0.11.0">
            <g transform="matrix(-1, 0, 0, -1, 9.77998, 9.77702)" >
                <g >
                    <path d="M6.7714,4.306c-0.032-0.2-0.141-0.257-0.403-0.341c-0.199-0.064-1.533-0.489-1.533-0.489s-0.93-0.351-1.619,0.146c-0.093,0.066-0.189,0.143-0.286,0.224c0.082-0.097,0.158-0.193,0.224-0.286c0.495-0.69,0.143-1.619,0.143-1.619s-0.427-1.334-0.492-1.533c-0.085-0.262-0.142-0.37-0.342-0.402s-0.288,0.054-0.449,0.277c-0.122,0.17-0.939,1.307-0.939,1.307s-0.621,0.777-0.361,1.586c0.034,0.109,0.077,0.224,0.125,0.341c-0.067-0.108-0.135-0.209-0.203-0.302c-0.503-0.684-1.496-0.636-1.496-0.636s-1.4-0.006-1.61-0.006c-0.275-0.001-0.396,0.02-0.488,0.201c-0.091,0.181-0.037,0.291,0.126,0.513c0.124,0.169,0.953,1.297,0.953,1.297s0.546,0.83,1.395,0.834c0.114,0,0.236-0.005,0.362-0.014c-0.122,0.03-0.24,0.064-0.348,0.1c-0.806,0.267-1.067,1.226-1.067,1.226s-0.438,1.33-0.503,1.529c-0.086,0.261-0.103,0.383,0.04,0.526c0.144,0.143,0.265,0.126,0.526,0.04c0.199-0.065,1.528-0.506,1.528-0.506s0.958-0.263,1.224-1.07c0.036-0.108,0.069-0.225,0.1-0.348c-0.009,0.126-0.014,0.248-0.013,0.362c0.005,0.849,0.836,1.394,0.836,1.394s1.13,0.827,1.298,0.951c0.223,0.162,0.333,0.216,0.514,0.124c0.181-0.092,0.201-0.213,0.2-0.488c-0.001-0.21-0.009-1.61-0.009-1.61s0.047-0.993-0.639-1.495c-0.092-0.067-0.194-0.135-0.301-0.202c0.117,0.047,0.232,0.09,0.34,0.124c0.81,0.258,1.584-0.364,1.584-0.364s1.136-0.819,1.306-0.941C6.7174,4.595,6.8034,4.507,6.7714,4.306z M1.9494,3.275c0.152,0.024,0.228,0.349,0.169,0.726s-0.231,0.662-0.384,0.638s-0.229-0.349-0.169-0.725C1.6244,3.537,1.7964,3.251,1.9494,3.275z M-0.0066,4.274c0.07-0.138,0.402-0.11,0.742,0.063c0.34,0.173,0.558,0.425,0.488,0.563s-0.402,0.11-0.742-0.063C0.1414,4.664-0.0766,4.412-0.0066,4.274z M1.0244,6.152c-0.269,0.27-0.577,0.4-0.686,0.291c-0.109-0.109,0.02-0.416,0.29-0.686c0.269-0.27,0.576-0.4,0.686-0.291C1.4234,5.575,1.2934,5.882,1.0244,6.152z M2.5084,6.785c-0.138,0.07-0.39-0.148-0.563-0.487c-0.174-0.34-0.203-0.673-0.065-0.743s0.39,0.148,0.563,0.487C2.6164,6.382,2.6454,6.714,2.5084,6.785z M2.8654,5.212c-0.377,0.06-0.701-0.015-0.726-0.168c-0.024-0.153,0.262-0.325,0.638-0.385c0.377-0.06,0.701,0.015,0.726,0.168C3.5274,4.98,3.2424,5.152,2.8654,5.212z"  fill="#DCDCDC"/>
                </g>
            </g>
        </g>
    </g>
    <g transform="matrix(1, 0, 0, 1, 32.3858, 33.548)" >
        <g id="sot23-8"  gorn="0.12.0">
            <g transform="matrix(-1, 0, 0, -1, 8.50392, 8.50392)" >
                <g >
                    <g transform="matrix(1, 0, 0, 1.38881, 0.363241, -3.30638)" >
                        <g id="g8078"  gorn="0.12.0.0.0.0.0">
                            <rect height="6.1232" id="rect5_00000080193346305693262410000007176659452077431708_" y="2.3807" width="0.9072"  gorn="0.12.0.0.0.0.0.0" x="-1.6722" fill="#DCDCDC"/>
                            <rect height="6.1232" id="rect8072" y="2.3807" width="0.9072"  gorn="0.12.0.0.0.0.0.1" x="0.1707" fill="#DCDCDC"/>
                            <rect height="6.1232" id="rect8074" y="2.3807" width="0.9072"  gorn="0.12.0.0.0.0.0.2" x="2.0132" fill="#DCDCDC"/>
                            <rect height="6.1232" id="rect8076" y="2.3807" width="0.9072"  gorn="0.12.0.0.0.0.0.3" x="3.8557" fill="#DCDCDC"/>
                        </g>
                    </g>
                    <path d="M-1.7852,1.8801h7.3701c0.3131,0,0.5669,0.2538,0.5669,0.5669v3.8268c0,0.3131-0.2538,0.5669-0.5669,0.5669h-7.3701c-0.3131,0-0.5669-0.2538-0.5669-0.5669V2.447C-2.3522,2.1339-2.0983,1.8801-1.7852,1.8801z" id="rect11_00000063614953015775567410000014391585925892345746_"  gorn="0.12.0.0.0.1" fill="#303030"/>
                    <circle cy="6.1817" r="0.2984" id="path8084" cx="-1.6387"  gorn="0.12.0.0.0.2" fill="#4D4D4D"/>
                </g>
            </g>
        </g>
    </g>
</svg>
